<svg width="50" height="50" viewBox="0 0 50 50" fill="none" xmlns="http://www.w3.org/2000/svg">
<g clip-path="url(#clip0)">
<path d="M25 36.6533C24.4606 36.6533 24.0234 37.0905 24.0234 37.6299C24.0234 37.6312 24.0234 37.6325 24.0234 37.6338C24.0234 37.6351 24.0234 37.6364 24.0234 37.6377V37.6455C24.0234 38.1849 24.4606 38.6221 25 38.6221C25.5394 38.6221 25.9766 38.1849 25.9766 37.6455C25.9766 37.6441 25.9766 37.643 25.9766 37.6416C25.9766 37.6402 25.9766 37.6391 25.9766 37.6377C25.9766 37.6363 25.9766 37.6351 25.9766 37.6338C25.9766 37.6325 25.9766 37.6312 25.9766 37.6299C25.9766 37.0905 25.5394 36.6533 25 36.6533Z" fill="#5D5D5F"/>
<path d="M40.4297 -0.000244141H9.57031C4.29316 -0.000244141 0 4.29292 0 9.57007V40.4294C0 45.7066 4.29316 49.9998 9.57031 49.9998H25C25.5394 49.9998 25.9766 49.5625 25.9766 49.0232V41.4548C25.9766 40.9155 25.5394 40.4783 25 40.4783C24.4606 40.4783 24.0234 40.9155 24.0234 41.4548V48.0466H9.57031C5.37021 48.0466 1.95312 44.6295 1.95312 40.4294V9.57007C1.95312 5.36997 5.37021 1.95288 9.57031 1.95288H40.4297C44.6298 1.95288 48.0469 5.36997 48.0469 9.57007V40.4294C48.0469 44.6295 44.6298 48.0466 40.4297 48.0466H34.1797V30.8104H39.8419C40.3435 30.8104 40.7634 30.4305 40.8136 29.9316L41.5158 22.9536C41.5435 22.6789 41.4536 22.4054 41.2685 22.2007C41.0833 21.996 40.8201 21.8792 40.5441 21.8792H34.1797V18.2151C34.1797 17.5519 34.3909 17.3053 34.9591 17.3053H40.5003C41.0396 17.3053 41.4769 16.8681 41.4769 16.3288V9.52603C41.4769 8.98667 41.0396 8.54946 40.5003 8.54946H33.2232C29.0999 8.54946 26.9132 10.3606 25.8049 11.8799C24.2548 14.0047 24.0233 16.5141 24.0233 17.8208V21.923H19.2382C18.6988 21.923 18.2616 22.3602 18.2616 22.8996V29.8337C18.2616 30.3731 18.6988 30.8103 19.2382 30.8103H24.0233V33.5935C24.0233 34.1329 24.4605 34.5701 24.9999 34.5701C25.5393 34.5701 25.9765 34.1329 25.9765 33.5935V29.8337C25.9765 29.2944 25.5393 28.8572 24.9999 28.8572H20.2147V23.876H24.9999C25.5393 23.876 25.9765 23.4388 25.9765 22.8995V17.8207C25.9765 15.6203 26.6826 10.5025 33.2232 10.5025H39.5237V15.3521H34.9591C33.6985 15.3521 32.2266 16.1019 32.2266 18.215V22.8557C32.2266 23.3951 32.6638 23.8323 33.2031 23.8323H39.4644L38.9587 28.8572H33.2031C32.6638 28.8572 32.2266 29.2944 32.2266 29.8337V49.0232C32.2266 49.5625 32.6638 49.9998 33.2031 49.9998H40.4297C45.7068 49.9998 50 45.7066 50 40.4294V9.57007C50 4.29292 45.7068 -0.000244141 40.4297 -0.000244141Z" fill="#5D5D5F"/>
<path d="M5.66406 10.0095C5.12471 10.0095 4.6875 10.4467 4.6875 10.9861V19.1404C4.6875 19.6797 5.12471 20.1169 5.66406 20.1169C6.20342 20.1169 6.64062 19.6797 6.64062 19.1404V10.9861C6.64062 10.4467 6.20342 10.0095 5.66406 10.0095Z" fill="#5D5D5F"/>
<path d="M5.66406 22.4004C5.12471 22.4004 4.6875 22.8376 4.6875 23.377V23.3885C4.6875 23.9278 5.12471 24.365 5.66406 24.365C6.20342 24.365 6.64062 23.9278 6.64062 23.3885V23.377C6.64062 22.8376 6.20342 22.4004 5.66406 22.4004Z" fill="#5D5D5F"/>
</g>
<defs>
<clipPath id="clip0">
<rect width="50" height="50" fill="white" transform="translate(0 -0.000244141)"/>
</clipPath>
</defs>
</svg>
