<svg width="50" height="50" viewBox="0 0 50 50" fill="none" xmlns="http://www.w3.org/2000/svg">
<g clip-path="url(#clip0)">
<path d="M42.3913 -0.000244141H7.6087C3.41413 -0.000244141 0 3.4128 0 7.60845V20.6519V42.3911C0 46.5867 3.41413 49.9998 7.6087 49.9998H42.3913C46.5859 49.9998 50 46.5867 50 42.3911V20.6519V7.60845C50 3.4128 46.5859 -0.000244141 42.3913 -0.000244141ZM47.8261 42.3911C47.8261 45.3878 45.388 47.8258 42.3913 47.8258H7.6087C4.61196 47.8258 2.17391 45.3878 2.17391 42.3911V21.7389H11.25C11.2293 21.8269 11.2217 21.9171 11.2033 22.0052C11.125 22.3661 11.0598 22.7291 11.0109 23.0965C10.9913 23.2378 10.9707 23.3791 10.9565 23.5226C10.9043 24.0106 10.8696 24.5019 10.8696 24.9998C10.8696 32.7911 17.2087 39.1302 25 39.1302C32.7913 39.1302 39.1304 32.7911 39.1304 24.9998C39.1304 24.5019 39.0957 24.0095 39.0446 23.5204C39.0304 23.3791 39.0098 23.24 38.9902 23.0998C38.9402 22.7269 38.875 22.3584 38.7946 21.9932C38.7761 21.9085 38.7696 21.8215 38.7489 21.7378H47.8261V42.3911ZM13.0435 24.9998C13.0435 23.6237 13.2739 22.2845 13.7326 21.0128C15.4098 16.2454 19.938 13.0432 25 13.0432C25.6326 13.0432 26.2576 13.0932 26.8685 13.19C30.8435 13.8204 34.275 16.4291 35.9217 20.1421C36.0478 20.4258 36.163 20.7161 36.2674 21.0128C36.2674 21.0139 36.2685 21.0139 36.2685 21.015C36.2696 21.0171 36.2696 21.0182 36.2707 21.0204C36.7261 22.2845 36.9565 23.6237 36.9565 24.9998C36.9565 31.5921 31.5924 36.9563 25 36.9563C18.4076 36.9563 13.0435 31.5921 13.0435 24.9998ZM47.8261 19.565H38.0402C38.0174 19.5106 37.9902 19.4595 37.9674 19.4052C37.9022 19.2519 37.8304 19.103 37.7598 18.9541C37.6772 18.778 37.5935 18.603 37.5033 18.4324C37.4261 18.2845 37.3435 18.14 37.262 17.9965C37.1674 17.8313 37.0717 17.6671 36.9717 17.5063C36.8826 17.3639 36.7902 17.2248 36.6967 17.0867C36.5924 16.9324 36.4859 16.7791 36.375 16.6291C36.275 16.4932 36.1728 16.3606 36.0685 16.2291C35.9533 16.0845 35.8359 15.9411 35.7163 15.8019C35.6076 15.6748 35.4957 15.5498 35.3826 15.4269C35.2576 15.2921 35.1304 15.1595 35.0011 15.0291C34.8826 14.9106 34.763 14.7932 34.6402 14.6791C34.5065 14.5541 34.3685 14.4324 34.2304 14.3128C34.1043 14.2041 33.9783 14.0965 33.8478 13.9921C33.7043 13.8769 33.5576 13.7661 33.4098 13.6563C33.2761 13.5574 33.1435 13.4585 33.0065 13.365C32.8543 13.2606 32.6989 13.1606 32.5424 13.0628C32.4033 12.9748 32.2641 12.8856 32.1217 12.803C31.9609 12.7095 31.7967 12.6215 31.6326 12.5345C31.488 12.4574 31.3435 12.3791 31.1957 12.3063C31.0261 12.2237 30.8543 12.1487 30.6815 12.0726C30.5326 12.0074 30.3848 11.9389 30.2337 11.8791C30.0554 11.8074 29.8728 11.7454 29.6902 11.6802C29.5402 11.6269 29.3913 11.5715 29.2391 11.5226C29.0478 11.4628 28.8543 11.4128 28.6598 11.3606C28.5109 11.3204 28.3641 11.2769 28.2141 11.2411C28.0076 11.1932 27.7978 11.1563 27.5891 11.1171C27.4478 11.0911 27.3076 11.0585 27.1652 11.0367C26.9304 10.9998 26.6913 10.9769 26.4533 10.9519C26.3326 10.94 26.2141 10.9204 26.0924 10.9106C25.7293 10.8845 25.3663 10.8693 25 10.8693C24.6337 10.8693 24.2707 10.8845 23.9098 10.9128C23.788 10.9226 23.6696 10.9411 23.5489 10.9541C23.3109 10.9791 23.0728 11.0019 22.838 11.0389C22.6935 11.0617 22.5533 11.0932 22.4098 11.1204C22.2022 11.1595 21.9935 11.1954 21.7891 11.2432C21.6359 11.2791 21.487 11.3237 21.3359 11.365C21.1446 11.4161 20.9533 11.4661 20.7652 11.5248C20.6098 11.5737 20.4587 11.6313 20.3054 11.6845C20.1272 11.7476 19.9478 11.8095 19.7717 11.8791C19.6163 11.9411 19.4641 12.0106 19.3109 12.078C19.1435 12.1519 18.975 12.2248 18.8109 12.3052C18.6565 12.3802 18.5065 12.4617 18.3554 12.5421C18.1978 12.6258 18.0413 12.7095 17.887 12.7998C17.737 12.8878 17.5902 12.9813 17.4435 13.0737C17.2957 13.1671 17.1489 13.2606 17.0043 13.3595C16.8587 13.4595 16.7174 13.5639 16.575 13.6693C16.437 13.7715 16.3 13.8748 16.1652 13.9824C16.025 14.0943 15.8891 14.2106 15.7533 14.328C15.625 14.4389 15.4989 14.5508 15.375 14.6661C15.2424 14.79 15.113 14.9161 14.9848 15.0443C14.8663 15.1639 14.7489 15.2845 14.6348 15.4085C14.5109 15.5421 14.3902 15.678 14.2707 15.8171C14.1609 15.9454 14.0533 16.0758 13.9478 16.2085C13.8348 16.3508 13.7239 16.4943 13.6152 16.6411C13.513 16.7791 13.4152 16.9204 13.3185 17.0628C13.2174 17.2117 13.1174 17.3617 13.0217 17.5161C12.9283 17.6661 12.8391 17.8193 12.7511 17.9726C12.663 18.1258 12.5761 18.2791 12.4935 18.4367C12.4065 18.6019 12.3261 18.7715 12.2457 18.9411C12.1739 19.0932 12.1011 19.2454 12.0337 19.4008C12.0098 19.4563 11.9815 19.5085 11.9587 19.5639H2.17391V7.60845C2.17391 4.61171 4.61196 2.17367 7.6087 2.17367H42.3913C45.388 2.17367 47.8261 4.61171 47.8261 7.60845V19.565Z" fill="#5D5D5F"/>
<path d="M25 17.3911C20.8054 17.3911 17.3913 20.8042 17.3913 24.9998C17.3913 29.1954 20.8054 32.6085 25 32.6085C29.1946 32.6085 32.6087 29.1954 32.6087 24.9998C32.6087 20.8042 29.1946 17.3911 25 17.3911ZM25 30.4346C22.0033 30.4346 19.5652 27.9965 19.5652 24.9998C19.5652 22.0031 22.0033 19.565 25 19.565C27.9967 19.565 30.4348 22.0031 30.4348 24.9998C30.4348 27.9965 27.9967 30.4346 25 30.4346Z" fill="#5D5D5F"/>
<path d="M42.3913 6.52148H39.1304C38.5293 6.52148 38.0435 7.00844 38.0435 7.60844V10.8693C38.0435 11.4693 38.5293 11.9563 39.1304 11.9563H42.3913C42.9924 11.9563 43.4783 11.4693 43.4783 10.8693V7.60844C43.4783 7.00844 42.9924 6.52148 42.3913 6.52148ZM41.3043 9.78235H40.2174V8.6954H41.3043V9.78235Z" fill="#5D5D5F"/>
</g>
<defs>
<clipPath id="clip0">
<rect width="50" height="50" fill="white" transform="translate(0 -0.000244141)"/>
</clipPath>
</defs>
</svg>
