<svg width="85" height="85" viewBox="0 0 85 85" fill="none" xmlns="http://www.w3.org/2000/svg">
<g clip-path="url(#clip0)">
<path d="M42.4997 16.7578C30.9003 16.7578 21.4635 26.1944 21.4635 37.794C21.4635 43.2388 23.1192 46.0693 24.8728 49.0658C26.7968 52.3535 28.9762 56.0811 29.4764 64.4972V67.6925C29.4764 69.7486 30.9025 71.4739 32.8162 71.9432V74.156C32.8162 76.2032 34.2298 77.9219 36.1305 78.3999V80.6202C36.1305 83.0357 38.0958 85.0002 40.5111 85.0002H44.7049C47.1204 85.0002 49.0855 83.0357 49.0855 80.6202V78.3999C50.9862 77.9218 52.3999 76.2032 52.3999 74.156V71.8876C54.2043 71.3462 55.5234 69.6714 55.5234 67.6927V64.4974C56.0235 56.0812 58.2031 52.3537 60.1271 49.0659C61.8807 46.0693 63.5364 43.2389 63.5364 37.7941C63.5365 26.1946 54.099 16.7578 42.4997 16.7578ZM44.705 82.7027H40.5111C39.3625 82.7027 38.4276 81.7687 38.4276 80.62V78.5365H46.7882V80.62C46.7884 81.7687 45.8535 82.7027 44.705 82.7027ZM48.0192 76.2394H37.1968C36.0481 76.2394 35.1133 75.3045 35.1133 74.1559V72.0732H50.1025V74.1559C50.1027 75.3045 49.1679 76.2394 48.0192 76.2394ZM51.1436 69.7759H33.8571C32.7084 69.7759 31.7736 68.841 31.7736 67.6924V65.6089H53.2263V67.6924C53.2263 68.8412 52.2923 69.7759 51.1436 69.7759ZM42.4997 33.1118C41.8655 33.1118 41.351 33.6263 41.351 34.2605V38.8734C40.4819 37.5821 40.0001 36.2007 39.9474 34.7854C39.8673 32.649 40.7461 30.4398 42.4997 28.3415C44.2533 30.44 45.132 32.6481 45.0527 34.7848C44.9995 36.2 44.5174 37.5818 43.6483 38.8734V34.2605C43.6483 33.6265 43.1339 33.1118 42.4997 33.1118ZM42.3976 60.5741C42.4318 60.5771 42.4646 60.5844 42.4997 60.5844C42.5347 60.5844 42.5677 60.5771 42.6018 60.5741C44.363 60.6168 45.8744 61.7366 46.4945 63.3117H38.5055C39.1254 61.7367 40.6368 60.6168 42.3976 60.5741ZM58.1447 47.906C56.1719 51.2764 53.9471 55.0783 53.3025 63.3117H48.9119C48.2938 60.7813 46.2115 58.8293 43.6482 58.3728V50.967C44.4243 51.086 45.1745 51.1522 45.8917 51.1522C51.1436 51.1522 54.7908 47.9702 56.537 41.7911C56.6343 41.4478 56.5662 41.0784 56.353 40.7927C56.1399 40.5063 55.8063 40.3358 55.4497 40.3298C55.2844 40.3275 55.1222 40.326 54.9592 40.326C49.6994 40.326 45.9221 41.6879 43.6483 44.3717V42.3783C45.9611 40.1831 47.2464 37.6004 47.3478 34.8699C47.463 31.7784 46.0713 28.6526 43.3231 25.8289C42.8893 25.3846 42.1087 25.3846 41.6764 25.8289C38.9282 28.6526 37.5365 31.7792 37.6517 34.8708C37.7536 37.6007 39.0382 40.1833 41.3512 42.3783V44.3702C39.0052 41.6034 35.0592 40.2443 29.5506 40.3298C29.1939 40.3358 28.8603 40.5063 28.6473 40.7927C28.4342 41.0784 28.3661 41.4478 28.4634 41.7911C30.2095 47.971 33.8559 51.1531 39.1086 51.1531C39.8252 51.1531 40.5756 51.0865 41.3513 50.9675V58.3729C38.7886 58.8296 36.7064 60.7815 36.0883 63.3119H31.6974C31.0527 55.0783 28.828 51.2766 26.8552 47.9061C25.1263 44.9507 23.7607 42.6169 23.7607 37.7941C23.7607 27.4615 32.1669 19.0553 42.4995 19.0553C52.8328 19.0553 61.239 27.4615 61.239 37.7941C61.2392 42.6167 59.8737 44.9506 58.1447 47.906ZM43.8989 48.6897C45.0723 44.8616 48.3439 42.8739 53.8485 42.6459C52.0388 47.5552 48.8367 49.504 43.8989 48.6897ZM41.1005 48.6897C36.1693 49.5034 32.9612 47.5575 31.1515 42.6459C36.6563 42.8747 39.9286 44.8624 41.1005 48.6897ZM80.2943 36.9101C80.2943 37.5443 79.7798 38.0588 79.1456 38.0588H68.8691C68.2349 38.0588 67.7204 37.5443 67.7204 36.9101C67.7204 36.2759 68.2349 35.7614 68.8691 35.7614H79.1456C79.7798 35.7614 80.2943 36.2759 80.2943 36.9101ZM74.3679 19.7006L65.4688 24.8381C65.2878 24.9429 65.0904 24.9922 64.8952 24.9922C64.4989 24.9922 64.1123 24.7865 63.8999 24.4179C63.5828 23.8682 63.7706 23.166 64.3203 22.8491L73.2194 17.7115C73.7676 17.3938 74.472 17.5814 74.7882 18.1319C75.1053 18.6812 74.9175 19.3835 74.3679 19.7006ZM53.924 13.9415L59.0622 5.04173C59.3793 4.49139 60.0831 4.30445 60.6311 4.62138C61.1808 4.93847 61.3684 5.64071 61.0514 6.19022L55.9132 15.09C55.7009 15.4587 55.3143 15.6642 54.918 15.6642C54.7227 15.6642 54.5254 15.6149 54.3444 15.5102C53.7947 15.1934 53.607 14.4912 53.924 13.9415ZM40.4671 11.4252V1.14866C40.4671 0.514482 40.9816 0 41.6158 0C42.25 0 42.7645 0.514482 42.7645 1.14866V11.4252C42.7645 12.0594 42.25 12.5739 41.6158 12.5739C40.9816 12.5739 40.4671 12.0594 40.4671 11.4252ZM22.4169 7.07509C22.0998 6.52541 22.2876 5.82316 22.8373 5.50624C23.3861 5.18915 24.0892 5.37691 24.4061 5.92659L29.5443 14.8257C29.8614 15.3754 29.6736 16.0776 29.124 16.3945C28.943 16.4993 28.7456 16.5486 28.5504 16.5486C28.1541 16.5486 27.7675 16.3429 27.5551 15.9744L22.4169 7.07509ZM20.2162 25.9501C20.0039 26.3188 19.6172 26.5243 19.221 26.5243C19.0257 26.5243 18.8283 26.475 18.6474 26.3703L9.74761 21.2321C9.19794 20.915 9.01034 20.2127 9.32726 19.6632C9.64352 19.1135 10.3481 18.9259 10.8961 19.2429L19.7959 24.3811C20.3456 24.6981 20.5332 25.4004 20.2162 25.9501ZM17.2794 38.6786C17.2794 39.3128 16.7649 39.8273 16.1307 39.8273H5.85438C5.2202 39.8273 4.70572 39.3128 4.70572 38.6786C4.70572 38.0445 5.2202 37.53 5.85438 37.53H16.1309C16.7649 37.53 17.2794 38.0445 17.2794 38.6786Z" fill="#DEE1ED"/>
</g>
<defs>
<clipPath id="clip0">
<rect width="85" height="85" fill="white"/>
</clipPath>
</defs>
</svg>
