<svg width="757" height="784" viewBox="0 0 757 784" fill="none" xmlns="http://www.w3.org/2000/svg">
<path d="M-66.8692 577.561C-66.0861 574.434 -63.902 571.654 -60.7403 569.76C-57.5787 567.866 -53.6647 566.994 -49.7573 567.312C-45.8498 567.63 -42.2273 569.115 -39.5919 571.481C-36.9566 573.846 -35.4962 576.923 -35.4938 580.114C-35.4915 583.305 -36.9474 586.384 -39.5793 588.753C-42.2112 591.122 -45.8316 592.613 -49.7385 592.937C-53.6455 593.26 -57.5607 592.393 -60.7251 590.504C-63.8896 588.615 -66.0777 585.838 -66.8655 582.712L-206.635 582.815L-206.638 577.663L-66.8692 577.561ZM440.32 700.815C441.103 697.688 443.287 694.908 446.449 693.014C449.611 691.12 453.524 690.248 457.432 690.566C461.339 690.884 464.962 692.369 467.597 694.734C470.233 697.1 471.693 700.176 471.695 703.368C471.698 706.559 470.242 709.638 467.61 712.007C464.978 714.376 461.358 715.867 457.451 716.19C453.544 716.514 449.628 715.647 446.464 713.758C443.3 711.869 441.111 709.092 440.324 705.966L53.344 706.249L53.3403 701.098L440.32 700.815ZM623.423 582.207C622.64 585.335 620.455 588.115 617.294 590.008C614.132 591.902 610.218 592.774 606.311 592.457C602.403 592.139 598.781 590.653 596.145 588.288C593.51 585.922 592.05 582.846 592.047 579.655C592.045 576.463 593.501 573.385 596.133 571.016C598.765 568.646 602.385 567.155 606.292 566.832C610.199 566.508 614.114 567.375 617.279 569.264C620.443 571.153 622.631 573.93 623.419 577.056L756.849 576.958L756.853 582.11L623.423 582.207ZM623.453 623.415C622.67 626.543 620.486 629.323 617.324 631.217C614.162 633.11 610.248 633.983 606.341 633.665C602.434 633.347 598.811 631.861 596.176 629.496C593.54 627.131 592.08 624.054 592.077 620.863C592.075 617.672 593.531 614.593 596.163 612.224C598.795 609.855 602.415 608.364 606.322 608.04C610.229 607.716 614.144 608.583 617.309 610.472C620.473 612.361 622.661 615.138 623.449 618.264L756.879 618.167L756.883 623.318L623.453 623.415ZM642.888 329.792C643.671 326.665 645.855 323.885 649.017 321.991C652.179 320.097 656.093 319.225 660 319.543C663.907 319.861 667.53 321.346 670.165 323.711C672.801 326.077 674.261 329.153 674.264 332.345C674.266 335.536 672.81 338.614 670.178 340.984C667.546 343.353 663.926 344.844 660.019 345.167C656.112 345.491 652.197 344.624 649.032 342.735C645.868 340.846 643.68 338.069 642.892 334.943L369.692 335.143C368.909 338.27 366.725 341.05 363.564 342.944C360.402 344.838 356.488 345.71 352.58 345.392C348.673 345.074 345.051 343.589 342.415 341.223C339.78 338.858 338.319 335.782 338.317 332.59C338.315 329.399 339.771 326.32 342.403 323.951C345.034 321.582 348.655 320.091 352.562 319.768C356.469 319.444 360.384 320.311 363.548 322.2C366.713 324.089 368.901 326.866 369.689 329.992L642.888 329.792ZM-168.56 206.761C-167.777 203.633 -165.593 200.853 -162.431 198.96C-159.27 197.066 -155.356 196.194 -151.448 196.511C-147.541 196.829 -143.918 198.315 -141.283 200.68C-138.648 203.046 -137.187 206.122 -137.185 209.313C-137.183 212.505 -138.639 215.583 -141.27 217.952C-143.902 220.322 -147.523 221.813 -151.43 222.136C-155.337 222.46 -159.252 221.593 -162.416 219.704C-165.581 217.815 -167.769 215.038 -168.557 211.912L-206.906 211.94L-206.91 206.789L-168.56 206.761ZM420.372 293.898C419.589 297.025 417.405 299.805 414.243 301.699C411.082 303.592 407.168 304.465 403.26 304.147C399.353 303.829 395.73 302.343 393.095 299.978C390.46 297.613 388.999 294.536 388.997 291.345C388.994 288.154 390.45 285.075 393.082 282.706C395.714 280.337 399.334 278.846 403.241 278.522C407.148 278.199 411.064 279.065 414.228 280.954C417.393 282.843 419.581 285.62 420.368 288.747L693.568 288.547C694.351 285.419 696.535 282.639 699.697 280.746C702.858 278.852 706.772 277.979 710.68 278.297C714.587 278.615 718.21 280.101 720.845 282.466C723.48 284.831 724.941 287.908 724.943 291.099C724.946 294.29 723.49 297.369 720.858 299.738C718.226 302.108 714.605 303.598 710.698 303.922C706.792 304.246 702.876 303.379 699.712 301.49C696.547 299.601 694.359 296.824 693.572 293.698L420.372 293.898ZM610.659 31.3129C614.507 31.9483 617.928 33.7224 620.257 36.291C622.586 38.8597 623.659 42.04 623.266 45.2154C622.874 48.3908 621.045 51.3351 618.133 53.4773C615.222 55.6196 611.435 56.8074 607.508 56.8102C603.581 56.8131 599.793 55.6309 596.879 53.4929C593.964 51.3549 592.13 48.4133 591.733 45.2385C591.336 42.0637 592.404 38.8818 594.73 36.3097C597.055 33.7376 600.473 31.9586 604.32 31.3175L604.298 0.153773L610.636 0.149135L610.659 31.3129ZM408.212 567.169C412.06 567.805 415.48 569.579 417.809 572.147C420.139 574.716 421.211 577.896 420.819 581.072C420.427 584.247 418.597 587.191 415.686 589.333C412.774 591.476 408.988 592.664 405.061 592.666C401.134 592.669 397.346 591.487 394.431 589.349C391.516 587.211 389.683 584.27 389.286 581.095C388.889 577.92 389.957 574.738 392.282 572.166C394.608 569.594 398.026 567.815 401.873 567.174L401.771 427.581C397.922 426.945 394.502 425.171 392.173 422.603C389.843 420.034 388.771 416.854 389.163 413.678C389.556 410.503 391.385 407.558 394.296 405.416C397.208 403.274 400.994 402.086 404.921 402.083C408.848 402.08 412.637 403.263 415.551 405.401C418.466 407.539 420.299 410.48 420.696 413.655C421.094 416.83 420.026 420.012 417.7 422.584C415.374 425.156 411.957 426.935 408.109 427.576L408.212 567.169ZM559.968 56.5901L560.077 206.228L756.578 206.084L756.582 211.235L553.742 211.383L553.629 56.5947C549.781 55.9593 546.36 54.1853 544.031 51.6166C541.702 49.0479 540.629 45.8676 541.022 42.6922C541.414 39.5168 543.243 36.5726 546.155 34.4303C549.066 32.288 552.853 31.1003 556.78 31.0974C560.707 31.0945 564.495 32.2767 567.409 34.4147C570.324 36.5528 572.158 39.4943 572.555 42.6691C572.952 45.844 571.884 49.0258 569.558 51.5979C567.233 54.17 563.815 55.949 559.968 56.5901ZM610.708 97.7613L610.757 164.982L756.548 164.876L756.552 170.027L604.422 170.138L604.369 97.7659C600.521 97.1305 597.1 95.3564 594.771 92.7878C592.442 90.2191 591.369 87.0388 591.762 83.8634C592.154 80.688 593.983 77.7438 596.895 75.6015C599.806 73.4592 603.593 72.2715 607.52 72.2686C611.447 72.2657 615.235 73.4479 618.149 75.5859C621.064 77.7239 622.898 80.6655 623.295 83.8403C623.692 87.0151 622.624 90.197 620.298 92.7691C617.973 95.3412 614.555 97.1202 610.708 97.7613ZM205.21 345.308L205.349 536.154L256.059 536.117L256.082 567.28C259.93 567.916 263.35 569.69 265.68 572.258C268.009 574.827 269.082 578.008 268.689 581.183C268.297 584.358 266.468 587.303 263.556 589.445C260.645 591.587 256.858 592.775 252.931 592.778C249.004 592.781 245.216 591.598 242.301 589.46C239.387 587.322 237.553 584.381 237.156 581.206C236.759 578.031 237.827 574.849 240.153 572.277C242.478 569.705 245.896 567.926 249.743 567.285L249.724 541.272L199.014 541.309L198.871 345.312C195.023 344.677 191.602 342.903 189.273 340.334C186.944 337.766 185.871 334.585 186.263 331.41C186.656 328.235 188.485 325.29 191.397 323.148C194.308 321.006 198.095 319.818 202.022 319.815C205.949 319.812 209.737 320.994 212.651 323.132C215.566 325.27 217.4 328.212 217.797 331.387C218.194 334.562 217.126 337.744 214.8 340.316C212.475 342.888 209.057 344.667 205.21 345.308ZM186.469 288.918C187.252 285.79 189.436 283.01 192.598 281.117C195.76 279.223 199.674 278.35 203.581 278.668C207.488 278.986 211.111 280.472 213.746 282.837C216.382 285.202 217.842 288.279 217.844 291.47C217.847 294.661 216.391 297.74 213.759 300.109C211.127 302.479 207.507 303.969 203.6 304.293C199.693 304.617 195.778 303.75 192.613 301.861C189.449 299.972 187.261 297.195 186.473 294.069L154.462 294.092L154.553 417.717L65.4935 417.782C64.7104 420.91 62.5263 423.69 59.3646 425.583C56.203 427.477 52.289 428.349 48.3816 428.032C44.4741 427.714 40.8516 426.228 38.2162 423.863C35.5809 421.497 34.1205 418.421 34.1181 415.23C34.1158 412.038 35.5717 408.96 38.2036 406.591C40.8355 404.221 44.4559 402.73 48.3628 402.407C52.2698 402.083 56.185 402.95 59.3494 404.839C62.5139 406.728 64.702 409.505 65.4897 412.631L148.21 412.571L148.12 288.946L186.469 288.918ZM167.064 623.749C166.281 626.877 164.097 629.657 160.935 631.55C157.773 633.444 153.86 634.317 149.952 633.999C146.045 633.681 142.422 632.195 139.787 629.83C137.151 627.465 135.691 624.388 135.689 621.197C135.686 618.006 137.142 614.927 139.774 612.558C142.406 610.189 146.026 608.698 149.933 608.374C153.84 608.05 157.756 608.917 160.92 610.806C164.084 612.695 166.273 615.472 167.06 618.598L351.2 618.464L351.061 427.618C347.213 426.982 343.792 425.208 341.463 422.64C339.133 420.071 338.061 416.891 338.453 413.715C338.846 410.54 340.675 407.596 343.587 405.453C346.498 403.311 350.284 402.123 354.212 402.12C358.139 402.118 361.927 403.3 364.841 405.438C367.756 407.576 369.59 410.517 369.987 413.692C370.384 416.867 369.316 420.049 366.99 422.621C364.665 425.193 361.247 426.972 357.4 427.613L357.543 623.61L167.064 623.749ZM116.234 458.953C115.45 462.081 113.266 464.861 110.105 466.754C106.943 468.648 103.029 469.521 99.1216 469.203C95.2142 468.885 91.5916 467.399 88.9562 465.034C86.3209 462.669 84.8605 459.592 84.8582 456.401C84.8558 453.21 86.3117 450.131 88.9436 447.762C91.5755 445.393 95.1959 443.902 99.1028 443.578C103.01 443.254 106.925 444.121 110.089 446.01C113.254 447.899 115.442 450.676 116.23 453.802L154.579 453.774L154.67 577.399L186.68 577.376C187.463 574.248 189.647 571.468 192.809 569.575C195.971 567.681 199.885 566.808 203.792 567.126C207.7 567.444 211.322 568.93 213.957 571.295C216.593 573.66 218.053 576.737 218.056 579.928C218.058 583.12 216.602 586.198 213.97 588.567C211.338 590.937 207.718 592.427 203.811 592.751C199.904 593.075 195.989 592.208 192.824 590.319C189.66 588.43 187.472 585.653 186.684 582.527L148.335 582.555L148.244 458.93L116.234 458.953ZM2.65318 732.299C6.50139 732.935 9.92176 734.709 12.2511 737.277C14.5805 739.846 15.653 743.026 15.2606 746.202C14.8682 749.377 13.0389 752.321 10.1274 754.464C7.2159 756.606 3.42957 757.794 -0.497523 757.796C-4.42462 757.799 -8.21268 756.617 -11.1273 754.479C-14.042 752.341 -15.8756 749.399 -16.2726 746.225C-16.6696 743.05 -15.6018 739.868 -13.2762 737.296C-10.9506 734.724 -7.53283 732.945 -3.68555 732.304L-3.70458 706.291L-48.0757 706.323L-48.0192 783.589L-54.3579 783.594L-54.4182 701.177L2.63038 701.135L2.65318 732.299ZM541.559 453.491C542.342 450.364 544.526 447.584 547.688 445.69C550.849 443.796 554.763 442.924 558.671 443.242C562.578 443.56 566.201 445.045 568.836 447.411C571.471 449.776 572.932 452.852 572.934 456.044C572.937 459.235 571.481 462.314 568.849 464.683C566.217 467.052 562.596 468.543 558.69 468.866C554.783 469.19 550.867 468.323 547.703 466.434C544.538 464.545 542.35 461.768 541.563 458.642L509.552 458.666L509.729 700.764L661.859 700.653L661.919 783.069L655.58 783.074L655.524 705.809L503.394 705.92L503.209 453.519L541.559 453.491ZM623.272 376.166C622.489 379.293 620.305 382.073 617.143 383.967C613.981 385.861 610.067 386.733 606.16 386.415C602.253 386.097 598.63 384.612 595.995 382.246C593.359 379.881 591.899 376.804 591.897 373.613C591.894 370.422 593.35 367.343 595.982 364.974C598.614 362.605 602.234 361.114 606.141 360.79C610.048 360.467 613.963 361.334 617.128 363.223C620.292 365.112 622.48 367.888 623.268 371.015L661.618 370.987L661.701 484.567C665.549 485.202 668.969 486.976 671.299 489.545C673.628 492.114 674.7 495.294 674.308 498.469C673.916 501.645 672.086 504.589 669.175 506.731C666.263 508.874 662.477 510.061 658.55 510.064C654.623 510.067 650.835 508.885 647.92 506.747C645.005 504.609 643.172 501.667 642.775 498.493C642.378 495.318 643.446 492.136 645.771 489.564C648.097 486.992 651.515 485.213 655.362 484.572L655.283 376.142L623.272 376.166ZM420.613 623.564C419.83 626.691 417.646 629.471 414.485 631.365C411.323 633.259 407.409 634.131 403.501 633.813C399.594 633.495 395.971 632.01 393.336 629.644C390.701 627.279 389.24 624.203 389.238 621.011C389.236 617.82 390.692 614.741 393.323 612.372C395.955 610.003 399.576 608.512 403.483 608.188C407.39 607.865 411.305 608.732 414.469 610.621C417.634 612.51 419.822 615.287 420.61 618.413L452.62 618.389L452.469 412.348L503.179 412.311L503.153 376.254L369.723 376.351C368.939 379.479 366.755 382.259 363.594 384.152C360.432 386.046 356.518 386.919 352.611 386.601C348.703 386.283 345.081 384.797 342.445 382.432C339.81 380.066 338.35 376.99 338.347 373.799C338.345 370.607 339.801 367.529 342.433 365.16C345.065 362.79 348.685 361.299 352.592 360.976C356.499 360.652 360.414 361.519 363.579 363.408C366.743 365.297 368.931 368.074 369.719 371.2L509.488 371.098L509.522 417.457L458.812 417.494L458.963 623.536L420.613 623.564ZM693.417 82.5052C694.2 79.3778 696.384 76.5978 699.546 74.7041C702.708 72.8104 706.622 71.9379 710.529 72.2558C714.436 72.5737 718.059 74.0593 720.694 76.4246C723.33 78.79 724.79 81.8665 724.793 85.0577C724.795 88.249 723.339 91.3277 720.707 93.6969C718.075 96.066 714.455 97.557 710.548 97.8806C706.641 98.2042 702.726 97.3374 699.561 95.4483C696.397 93.5593 694.209 90.7824 693.421 87.6562L655.072 87.6843L655.007 0.116669L661.346 0.112031L661.406 82.5286L693.417 82.5052ZM103.73 262.965L103.813 376.546L-35.9564 376.648C-36.7395 379.775 -38.9236 382.555 -42.0853 384.449C-45.247 386.343 -49.1609 387.215 -53.0683 386.897C-56.9758 386.58 -60.5983 385.094 -63.2337 382.729C-65.869 380.363 -67.3295 377.287 -67.3318 374.096C-67.3341 370.904 -65.8782 367.826 -63.2463 365.456C-60.6144 363.087 -56.9941 361.596 -53.0871 361.273C-49.1801 360.949 -45.2649 361.816 -42.1005 363.705C-38.9361 365.594 -36.7479 368.371 -35.9602 371.497L97.4702 371.399L97.3909 262.97C93.5426 262.335 90.1223 260.561 87.7929 257.992C85.4635 255.423 84.3911 252.243 84.7834 249.068C85.1758 245.892 87.0051 242.948 89.9166 240.806C92.8281 238.663 96.6145 237.476 100.542 237.473C104.469 237.47 108.257 238.652 111.171 240.79C114.086 242.928 115.92 245.87 116.317 249.045C116.714 252.219 115.646 255.401 113.32 257.973C110.995 260.545 107.577 262.324 103.73 262.965ZM-36.1675 88.1901C-36.9506 91.3174 -39.1347 94.0974 -42.2964 95.9912C-45.458 97.8849 -49.372 98.7573 -53.2794 98.4395C-57.1868 98.1216 -60.8094 96.6359 -63.4447 94.2706C-66.0801 91.9053 -67.5405 88.8288 -67.5428 85.6375C-67.5452 82.4462 -66.0893 79.3676 -63.4574 76.9984C-60.8255 74.6292 -57.2051 73.1383 -53.2981 72.8147C-49.3912 72.4911 -45.476 73.3578 -42.3115 75.2469C-39.1471 77.136 -36.9589 79.9128 -36.1712 83.039L46.5492 82.9785L46.4889 0.561917L52.8277 0.557279L52.8918 88.1249L-36.1675 88.1901ZM154.319 98.0952L154.372 170.467L52.9521 170.541L53.0727 335.375L14.7233 335.403C13.9402 338.53 11.7561 341.31 8.59442 343.204C5.43278 345.097 1.51882 345.97 -2.38861 345.652C-6.29605 345.334 -9.9186 343.849 -12.554 341.483C-15.1893 339.118 -16.6497 336.041 -16.6521 332.85C-16.6544 329.659 -15.1985 326.58 -12.5666 324.211C-9.9347 321.842 -6.31433 320.351 -2.40736 320.027C1.4996 319.704 5.41483 320.57 8.57924 322.46C11.7437 324.349 13.9319 327.125 14.7196 330.252L46.7302 330.228L46.6095 165.395L148.029 165.321L147.98 98.0998C144.132 97.4644 140.712 95.6904 138.382 93.1217C136.053 90.553 134.98 87.3727 135.373 84.1973C135.765 81.0219 137.594 78.0777 140.506 75.9354C143.417 73.7931 147.204 72.6054 151.131 72.6025C155.058 72.5997 158.846 73.7818 161.761 75.9199C164.675 78.0579 166.509 80.9994 166.906 84.1743C167.303 87.3491 166.235 90.531 163.909 93.103C161.584 95.6751 158.166 97.4541 154.319 98.0952ZM116.053 211.704C115.269 214.831 113.085 217.611 109.924 219.505C106.762 221.398 102.848 222.271 98.9407 221.953C95.0332 221.635 91.4107 220.15 88.7753 217.784C86.14 215.419 84.6796 212.342 84.6772 209.151C84.6749 205.96 86.1308 202.881 88.7627 200.512C91.3946 198.143 95.015 196.652 98.9219 196.328C102.829 196.005 106.744 196.871 109.909 198.76C113.073 200.65 115.261 203.426 116.049 206.553L198.769 206.492L198.69 98.0627C194.842 97.4273 191.421 95.6533 189.092 93.0846C186.763 90.5159 185.69 87.3356 186.083 84.1602C186.475 80.9848 188.304 78.0406 191.216 75.8983C194.127 73.756 197.914 72.5683 201.841 72.5654C205.768 72.5625 209.556 73.7447 212.47 75.8827C215.385 78.0208 217.219 80.9623 217.616 84.1372C218.013 87.312 216.945 90.4939 214.619 93.0659C212.294 95.638 208.876 97.417 205.029 98.0581L205.112 211.638L116.053 211.704ZM166.642 46.8334C165.859 49.9607 163.675 52.7407 160.513 54.6344C157.351 56.5281 153.437 57.4006 149.53 57.0827C145.623 56.7648 142 55.2792 139.365 52.9139C136.729 50.5486 135.269 47.4721 135.266 44.2808C135.264 41.0895 136.72 38.0109 139.352 35.6417C141.984 33.2725 145.604 31.7816 149.511 31.458C153.418 31.1344 157.333 32.0011 160.498 33.8902C163.662 35.7793 165.85 38.5561 166.638 41.6823L255.697 41.6172L255.78 155.197C259.629 155.833 263.049 157.607 265.378 160.176C267.708 162.744 268.78 165.925 268.388 169.1C267.995 172.275 266.166 175.22 263.255 177.362C260.343 179.504 256.557 180.692 252.63 180.695C248.703 180.698 244.915 179.516 242 177.377C239.085 175.239 237.252 172.298 236.855 169.123C236.458 165.948 237.525 162.766 239.851 160.194C242.177 157.622 245.594 155.843 249.442 155.202L249.362 46.7728L166.642 46.8334ZM491.06 741.986C491.843 738.859 494.027 736.079 497.189 734.185C500.35 732.291 504.264 731.419 508.172 731.737C512.079 732.055 515.702 733.54 518.337 735.906C520.973 738.271 522.433 741.348 522.435 744.539C522.438 747.73 520.982 750.809 518.35 753.178C515.718 755.547 512.098 757.038 508.191 757.362C504.284 757.685 500.368 756.818 497.204 754.929C494.04 753.04 491.851 750.264 491.064 747.137L104.084 747.42L104.11 783.478L97.7717 783.482L97.7416 742.274L491.06 741.986ZM560.209 386.256L560.228 412.269L610.938 412.232L611.002 499.8L560.292 499.837L560.409 659.519L712.538 659.408L712.629 783.032L706.29 783.037L706.204 664.563L554.074 664.675L553.949 494.69L604.659 494.653L604.603 417.388L553.893 417.425L553.87 386.261C550.022 385.626 546.602 383.852 544.272 381.283C541.943 378.714 540.87 375.534 541.263 372.359C541.655 369.183 543.484 366.239 546.396 364.097C549.307 361.954 553.094 360.767 557.021 360.764C560.948 360.761 564.736 361.943 567.651 364.081C570.565 366.219 572.399 369.161 572.796 372.335C573.193 375.51 572.125 378.692 569.8 381.264C567.474 383.836 564.056 385.615 560.209 386.256ZM-36.1976 46.9818C-36.9807 50.1091 -39.1649 52.8892 -42.3265 54.7829C-45.4882 56.6766 -49.4021 57.549 -53.3095 57.2312C-57.217 56.9133 -60.8395 55.4276 -63.4749 53.0623C-66.1103 50.697 -67.5707 47.6205 -67.573 44.4292C-67.5753 41.2379 -66.1194 38.1593 -63.4875 35.7901C-60.8556 33.4209 -57.2353 31.93 -53.3283 31.6064C-49.4213 31.2828 -45.5061 32.1495 -42.3417 34.0386C-39.1773 35.9277 -36.9891 38.7045 -36.2014 41.8307L-4.19078 41.8073L-4.21716 5.75006L-54.927 5.78716L-54.9308 0.636125L2.1178 0.594383L2.15172 46.9537L-36.1976 46.9818ZM318.832 129.139C318.049 132.266 315.865 135.046 312.703 136.94C309.541 138.833 305.627 139.706 301.72 139.388C297.812 139.07 294.19 137.584 291.555 135.219C288.919 132.854 287.459 129.777 287.456 126.586C287.454 123.395 288.91 120.316 291.542 117.947C294.174 115.578 297.794 114.087 301.701 113.763C305.608 113.44 309.523 114.306 312.688 116.195C315.852 118.085 318.04 120.861 318.828 123.988L401.549 123.927L401.458 0.302189L559.926 0.186239L559.93 5.33727L407.801 5.44859L407.891 129.073L318.832 129.139ZM166.612 5.62506C166.197 7.28265 165.384 8.85769 164.22 10.2602C163.056 11.6628 161.564 12.8654 159.828 13.7994C158.092 14.7334 156.147 15.3805 154.104 15.7037C152.061 16.0269 149.959 16.02 147.92 15.6833C145.88 15.3465 143.942 14.6866 142.217 13.7412C140.491 12.7958 139.012 11.5833 137.863 10.1731C135.543 7.32511 134.71 3.84441 135.548 0.496753L142.109 0.491952C141.605 1.6574 141.453 2.90387 141.664 4.12687C141.876 5.34988 142.445 6.51377 143.324 7.521C144.203 8.52822 145.367 9.34942 146.717 9.91577C148.068 10.4821 149.566 10.7771 151.086 10.776C152.605 10.7749 154.103 10.4777 155.452 9.90938C156.802 9.34106 157.964 8.51815 158.842 7.50964C159.72 6.50113 160.287 5.33641 160.497 4.1131C160.707 2.88978 160.553 1.64354 160.047 0.478827L357.087 0.334655L357.151 87.9023L300.102 87.944L300.08 56.7802C296.231 56.1448 292.811 54.3708 290.482 51.8021C288.152 49.2334 287.08 46.0531 287.472 42.8777C287.865 39.7023 289.694 36.7581 292.605 34.6158C295.517 32.4735 299.303 31.2858 303.23 31.2829C307.157 31.28 310.945 32.4622 313.86 34.6003C316.775 36.7383 318.608 39.6798 319.005 42.8547C319.402 46.0295 318.335 49.2114 316.009 51.7834C313.683 54.3555 310.266 56.1345 306.418 56.7756L306.437 82.7883L350.808 82.7559L350.752 5.49033L166.612 5.62506ZM166.793 252.875C166.01 256.002 163.825 258.782 160.664 260.676C157.502 262.57 153.588 263.442 149.681 263.124C145.773 262.806 142.151 261.321 139.515 258.955C136.88 256.59 135.42 253.514 135.417 250.322C135.415 247.131 136.871 244.052 139.503 241.683C142.135 239.314 145.755 237.823 149.662 237.499C153.569 237.176 157.484 238.043 160.649 239.932C163.813 241.821 166.001 244.598 166.789 247.724L227.324 247.679L328.683 165.189L452.289 165.098L452.209 56.6689C448.361 56.0335 444.941 54.2595 442.611 51.6908C440.282 49.1221 439.209 45.9418 439.602 42.7664C439.994 39.591 441.823 36.6468 444.735 34.5045C447.647 32.3622 451.433 31.1745 455.36 31.1716C459.287 31.1687 463.075 32.3509 465.99 34.4889C468.904 36.627 470.738 39.5685 471.135 42.7434C471.532 45.9182 470.464 49.1001 468.139 51.6721C465.813 54.2442 462.395 56.0232 458.548 56.6643L458.631 170.245L331.318 170.338L229.958 252.829L166.793 252.875ZM256.022 484.864C259.87 485.499 263.29 487.273 265.62 489.842C267.949 492.411 269.021 495.591 268.629 498.766C268.237 501.942 266.407 504.886 263.496 507.028C260.584 509.171 256.798 510.358 252.871 510.361C248.944 510.364 245.156 509.182 242.241 507.044C239.326 504.906 237.493 501.964 237.096 498.789C236.699 495.615 237.767 492.433 240.092 489.861C242.418 487.289 245.836 485.51 249.683 484.868L249.539 287.816L349.6 206.382L503.029 206.269L502.919 56.6318C499.071 55.9964 495.65 54.2224 493.321 51.6537C490.992 49.085 489.919 45.9047 490.312 42.7293C490.704 39.5539 492.533 36.6097 495.445 34.4674C498.356 32.3251 502.143 31.1374 506.07 31.1345C509.997 31.1316 513.785 32.3138 516.7 34.4518C519.614 36.5899 521.448 39.5314 521.845 42.7062C522.242 45.8811 521.174 49.0629 518.848 51.635C516.523 54.2071 513.105 55.9861 509.258 56.6272L509.371 211.416L352.202 211.531L255.879 289.923L256.022 484.864ZM306.792 567.243C310.64 567.879 314.06 569.653 316.39 572.221C318.719 574.79 319.792 577.97 319.399 581.146C319.007 584.321 317.178 587.265 314.266 589.408C311.355 591.55 307.568 592.738 303.641 592.741C299.714 592.743 295.926 591.561 293.011 589.423C290.097 587.285 288.263 584.344 287.866 581.169C287.469 577.994 288.537 574.812 290.862 572.24C293.188 569.668 296.606 567.889 300.453 567.248L300.266 310.958L378.154 247.569L744.248 247.301C744.867 244.826 746.368 242.553 748.565 240.766C750.761 238.978 753.556 237.755 756.601 237.248L756.605 242.579C754.748 243.111 753.14 244.099 752.003 245.405C750.866 246.712 750.256 248.272 750.257 249.872C750.258 251.472 750.871 253.032 752.01 254.337C753.148 255.642 754.758 256.627 756.615 257.156L756.619 262.488C753.573 261.985 750.777 260.766 748.578 258.982C746.379 257.197 744.874 254.927 744.251 252.452L380.757 252.718L306.606 313.065L306.792 567.243ZM-149.718 402.744C-145.869 403.38 -142.449 405.154 -140.12 407.722C-137.79 410.291 -136.718 413.471 -137.11 416.647C-137.503 419.822 -139.332 422.766 -142.243 424.908C-145.155 427.051 -148.941 428.239 -152.868 428.241C-156.795 428.244 -160.584 427.062 -163.498 424.924C-166.413 422.786 -168.246 419.844 -168.643 416.67C-169.04 413.495 -167.973 410.313 -165.647 407.741C-163.321 405.169 -159.904 403.39 -156.056 402.749L-156.063 393.709L-4.02383 269.972L-4.13048 124.224L97.2893 124.15L97.1988 0.524813L103.538 0.520175L103.632 129.296L2.21202 129.37L2.31644 272.08L-149.723 395.816L-149.718 402.744ZM-48.4905 139.452L-48.4085 251.513L-200.448 375.249L-200.33 536.451L-117.609 536.39C-116.826 533.263 -114.642 530.483 -111.48 528.589C-108.319 526.695 -104.405 525.823 -100.497 526.141C-96.5899 526.459 -92.9673 527.944 -90.332 530.309C-87.6966 532.675 -86.2362 535.751 -86.2339 538.943C-86.2315 542.134 -87.6874 545.213 -90.3193 547.582C-92.9512 549.951 -96.5716 551.442 -100.479 551.765C-104.386 552.089 -108.301 551.222 -111.465 549.333C-114.63 547.444 -116.818 544.667 -117.605 541.541L-206.665 541.606L-206.788 373.142L-54.7488 249.405L-54.8292 139.457C-58.6774 138.821 -62.0978 137.047 -64.4272 134.478C-66.7566 131.91 -67.829 128.729 -67.4366 125.554C-67.0443 122.379 -65.215 119.434 -62.3035 117.292C-59.392 115.15 -55.6056 113.962 -51.6785 113.959C-47.7514 113.956 -43.9634 115.139 -41.0487 117.277C-38.1341 119.415 -36.3005 122.356 -35.9035 125.531C-35.5064 128.706 -36.5742 131.888 -38.8998 134.46C-41.2255 137.032 -44.6432 138.811 -48.4905 139.452ZM-99.1702 180.697L-99.1335 230.946L-206.828 318.592L-206.833 311.329L-105.474 228.838L-105.509 180.702C-109.357 180.067 -112.778 178.292 -115.107 175.724C-117.436 173.155 -118.509 169.975 -118.116 166.799C-117.724 163.624 -115.895 160.68 -112.983 158.538C-110.072 156.395 -106.285 155.208 -102.358 155.205C-98.4312 155.202 -94.6431 156.384 -91.7284 158.522C-88.8138 160.66 -86.9802 163.602 -86.5832 166.776C-86.1861 169.951 -87.2539 173.133 -89.5796 175.705C-91.9052 178.277 -95.3229 180.056 -99.1702 180.697ZM-168.651 83.136C-167.868 80.0086 -165.684 77.2286 -162.522 75.3349C-159.36 73.4412 -155.446 72.5687 -151.539 72.8866C-147.631 73.2045 -144.009 74.6901 -141.374 77.0554C-138.738 79.4207 -137.278 82.4973 -137.275 85.6885C-137.273 88.8798 -138.729 91.9584 -141.361 94.3276C-143.993 96.6968 -147.613 98.1877 -151.52 98.5113C-155.427 98.8349 -159.342 97.9682 -162.507 96.0791C-165.671 94.19 -167.859 91.4132 -168.647 88.287L-177.173 88.2932L-206.979 112.551L-206.984 105.313L-179.775 83.1441L-168.651 83.136ZM673.801 128.879C673.018 132.006 670.834 134.786 667.672 136.68C664.51 138.574 660.596 139.446 656.689 139.128C652.782 138.81 649.159 137.325 646.524 134.959C643.888 132.594 642.428 129.518 642.425 126.326C642.423 123.135 643.879 120.056 646.511 117.687C649.143 115.318 652.763 113.827 656.67 113.504C660.577 113.18 664.492 114.047 667.657 115.936C670.821 117.825 673.009 120.602 673.797 123.728L733.033 123.685L756.504 104.583L756.509 111.846L735.635 128.834L673.801 128.879ZM623.393 540.999C622.609 544.126 620.425 546.906 617.264 548.8C614.102 550.694 610.188 551.566 606.281 551.248C602.373 550.93 598.751 549.445 596.115 547.079C593.48 544.714 592.019 541.638 592.017 538.446C592.015 535.255 593.471 532.176 596.103 529.807C598.735 527.438 602.355 525.947 606.262 525.624C610.169 525.3 614.084 526.167 617.249 528.056C620.413 529.945 622.601 532.722 623.389 535.848L706.109 535.787L705.975 351.87L756.654 310.624L756.66 317.887L712.315 353.977L712.452 540.934L623.393 540.999ZM-35.7755 623.898C-36.5586 627.025 -38.7427 629.805 -41.9044 631.699C-45.066 633.593 -48.98 634.465 -52.8874 634.147C-56.7949 633.829 -60.4174 632.344 -63.0528 629.978C-65.6881 627.613 -67.1485 624.537 -67.1509 621.345C-67.1532 618.154 -65.6973 615.075 -63.0654 612.706C-60.4335 610.337 -56.8131 608.846 -52.9062 608.522C-48.9992 608.199 -45.084 609.066 -41.9196 610.955C-38.7551 612.844 -36.567 615.621 -35.7793 618.747L-3.76866 618.723L-3.81123 560.542L-78.0502 500.304L-137.286 500.347C-138.069 503.475 -140.253 506.255 -143.415 508.148C-146.576 510.042 -150.49 510.914 -154.398 510.597C-158.305 510.279 -161.928 508.793 -164.563 506.428C-167.198 504.062 -168.659 500.986 -168.661 497.795C-168.663 494.603 -167.208 491.525 -164.576 489.155C-161.944 486.786 -158.323 485.295 -154.416 484.972C-150.509 484.648 -146.594 485.515 -143.43 487.404C-140.265 489.293 -138.077 492.07 -137.289 495.196L-75.4551 495.151L2.52596 558.426L2.57384 623.87L-35.7755 623.898ZM440.29 659.607C441.073 656.479 443.257 653.699 446.419 651.806C449.58 649.912 453.494 649.039 457.402 649.357C461.309 649.675 464.932 651.161 467.567 653.526C470.202 655.892 471.663 658.968 471.665 662.159C471.668 665.351 470.212 668.429 467.58 670.798C464.948 673.168 461.327 674.659 457.42 674.982C453.514 675.306 449.598 674.439 446.434 672.55C443.269 670.661 441.081 667.884 440.294 664.758L97.685 665.009L97.5784 519.234L-27.369 417.85L-86.6361 417.893C-87.4193 421.021 -89.6034 423.801 -92.765 425.695C-95.9267 427.588 -99.8406 428.461 -103.748 428.143C-107.655 427.825 -111.278 426.339 -113.913 423.974C-116.549 421.609 -118.009 418.532 -118.012 415.341C-118.014 412.15 -116.558 409.071 -113.926 406.702C-111.294 404.333 -107.674 402.842 -103.767 402.518C-99.8598 402.194 -95.9446 403.061 -92.7802 404.95C-89.6158 406.839 -87.4276 409.616 -86.6399 412.742L-24.8372 412.697L103.916 517.169L104.02 659.853L440.29 659.607ZM-35.7453 665.106C-36.5285 668.233 -38.7126 671.013 -41.8742 672.907C-45.0359 674.801 -48.9498 675.673 -52.8573 675.355C-56.7647 675.038 -60.3873 673.552 -63.0226 671.187C-65.658 668.821 -67.1184 665.745 -67.1207 662.554C-67.1231 659.362 -65.6672 656.284 -63.0352 653.914C-60.4034 651.545 -56.783 650.054 -52.876 649.731C-48.9691 649.407 -45.0538 650.274 -41.8894 652.163C-38.725 654.052 -36.5368 656.829 -35.7491 659.955L46.9714 659.895L46.8836 539.901L-52.7254 459.077L-137.316 459.139C-138.099 462.266 -140.283 465.046 -143.445 466.94C-146.606 468.834 -150.52 469.706 -154.428 469.388C-158.335 469.07 -161.958 467.585 -164.593 465.219C-167.228 462.854 -168.689 459.778 -168.691 456.586C-168.694 453.395 -167.238 450.316 -164.606 447.947C-161.974 445.578 -158.353 444.087 -154.447 443.763C-150.54 443.44 -146.624 444.307 -143.46 446.196C-140.295 448.085 -138.107 450.862 -137.32 453.988L-50.1303 453.924L53.2208 537.785L53.3139 665.041L-35.7453 665.106ZM-99.2269 103.174L-99.2239 107.321L-177.112 170.71L-206.936 170.732L-206.94 165.581L-179.715 165.561L-105.564 105.214L-105.641 0.673229L-99.3019 0.668591L-99.2269 103.174ZM-200.156 773.656C-197.11 774.158 -194.314 775.378 -192.115 777.162C-189.916 778.946 -188.411 781.217 -187.788 783.691L-194.349 783.696C-194.765 782.739 -195.41 781.858 -196.245 781.103C-197.081 780.349 -198.092 779.736 -199.219 779.299C-200.347 778.862 -201.57 778.61 -202.817 778.557C-204.065 778.504 -205.313 778.652 -206.491 778.992L-206.578 660.08L-149.529 660.038L-149.439 783.663L-155.778 783.668L-155.864 665.194L-200.235 665.226L-200.156 773.656ZM-98.8478 621.368L-98.7291 783.626L-105.068 783.631L-105.185 623.949L-206.604 624.023L-206.608 618.872L-98.8497 618.793L-98.8478 621.368ZM-153.147 47.0673L-207.027 47.1068L-207.03 41.9557L-156.32 41.9186L-156.351 0.710333L-150.012 0.705695L-149.978 47.065L-153.147 47.0673ZM712.086 41.2832L756.457 41.2507L756.461 46.4018L705.751 46.4389L705.717 0.0795647L712.056 0.0749267L712.086 41.2832ZM611.181 744.474L611.209 783.107L604.87 783.111L604.844 747.054L560.473 747.086L560.499 783.144L554.161 783.148L554.13 741.94L611.179 741.898L611.181 744.474ZM-206.887 237.953C-204.586 237.579 -202.212 237.623 -199.934 238.082C-197.657 238.542 -195.533 239.405 -193.715 240.609C-191.897 241.814 -190.429 243.331 -189.417 245.051C-188.405 246.771 -187.874 248.652 -187.861 250.559C-187.86 252.469 -188.38 254.355 -189.386 256.081C-190.392 257.807 -191.858 259.33 -193.677 260.54C-195.497 261.749 -197.624 262.615 -199.906 263.073C-202.187 263.532 -204.565 263.573 -206.868 263.193L-206.872 257.861C-205.438 258.27 -203.904 258.394 -202.399 258.221C-200.894 258.049 -199.462 257.586 -198.222 256.872C-196.982 256.157 -195.972 255.211 -195.274 254.113C-194.577 253.016 -194.213 251.798 -194.214 250.563C-194.215 249.328 -194.58 248.112 -195.279 247.015C-195.978 245.918 -196.991 244.974 -198.231 244.261C-199.472 243.548 -200.905 243.087 -202.411 242.917C-203.916 242.747 -205.45 242.873 -206.883 243.284L-206.887 237.953ZM47.0015 701.103L53.3403 701.098L53.4006 783.515L47.0618 783.519L47.0015 701.103ZM167.181 783.431L160.62 783.436C159.966 781.928 158.751 780.621 157.144 779.698C155.537 778.774 153.616 778.279 151.647 778.28C149.678 778.282 147.759 778.78 146.153 779.706C144.547 780.632 143.334 781.94 142.682 783.449L136.121 783.454C136.846 780.543 138.788 777.924 141.617 776.042C144.446 774.16 147.988 773.131 151.643 773.128C155.299 773.125 158.843 774.15 161.674 776.027C164.506 777.905 166.451 780.521 167.181 783.431ZM-188.361 0.733754C-187.851 2.81746 -187.982 4.97129 -188.74 7.00473C-189.498 9.03817 -190.862 10.8886 -192.709 12.3922C-194.557 13.8959 -196.832 15.0065 -199.333 15.6258C-201.834 16.2451 -204.484 16.3541 -207.049 15.943L-207.053 10.6117C-205.36 11.0982 -203.531 11.1849 -201.779 10.8617C-200.027 10.5385 -198.424 9.81864 -197.154 8.78548C-195.885 7.75232 -195.001 6.44814 -194.606 5.02399C-194.211 3.59985 -194.32 2.114 -194.922 0.738555L-188.361 0.733754ZM744.067 0.0515048L750.627 0.0467044C750.211 1.00414 750.031 2.01879 750.098 3.03263C750.165 4.04648 750.476 5.03965 751.016 5.95536C751.555 6.87107 752.311 7.69137 753.241 8.36937C754.171 9.04736 755.256 9.56976 756.434 9.90669L756.438 15.238C754.398 14.9016 752.46 14.2419 750.734 13.2965C749.009 12.3512 747.529 11.1387 746.38 9.72847C745.231 8.31819 744.436 6.73771 744.039 5.07731C743.642 3.41691 743.651 1.70912 744.067 0.0515048V0.0515048ZM756.993 772.955L756.997 778.287C755.659 778.672 754.443 779.295 753.44 780.112C752.437 780.928 751.672 781.916 751.2 783.004L744.64 783.009C745.259 780.534 746.76 778.261 748.957 776.473C751.153 774.686 753.948 773.462 756.993 772.955ZM100.557 258.074C101.805 258.073 103.041 257.873 104.195 257.483C105.348 257.094 106.396 256.524 107.278 255.806C108.161 255.088 108.86 254.236 109.337 253.298C109.815 252.36 110.06 251.355 110.059 250.341C110.058 249.326 109.812 248.322 109.333 247.385C108.855 246.447 108.154 245.596 107.27 244.879C106.387 244.162 105.338 243.594 104.184 243.207C103.03 242.819 101.794 242.62 100.545 242.621C98.0236 242.623 95.6058 243.439 93.8237 244.889C92.0417 246.339 91.0414 248.305 91.0429 250.355C91.0444 252.404 92.0476 254.368 93.8317 255.816C95.6159 257.264 98.0349 258.076 100.557 258.074ZM100.526 216.866C103.048 216.864 105.466 216.048 107.248 214.598C109.03 213.148 110.03 211.182 110.029 209.132C110.027 207.083 109.024 205.119 107.24 203.671C105.456 202.223 103.037 201.411 100.515 201.413C97.9935 201.415 95.5756 202.231 93.7936 203.681C92.0115 205.131 91.0112 207.097 91.0127 209.146C91.0142 211.196 92.0174 213.16 93.8016 214.608C95.5857 216.056 98.0048 216.868 100.526 216.866ZM151.266 258.037C152.515 258.036 153.751 257.836 154.905 257.446C156.058 257.057 157.106 256.487 157.988 255.769C158.87 255.051 159.57 254.199 160.047 253.261C160.524 252.323 160.77 251.318 160.769 250.304C160.768 249.289 160.522 248.284 160.043 247.347C159.565 246.41 158.864 245.559 157.98 244.842C157.097 244.125 156.048 243.557 154.894 243.17C153.74 242.782 152.504 242.583 151.255 242.584C148.733 242.586 146.316 243.402 144.534 244.852C142.752 246.302 141.751 248.268 141.753 250.318C141.754 252.367 142.757 254.331 144.542 255.779C146.326 257.227 148.745 258.039 151.266 258.037ZM202.007 299.208C204.528 299.207 206.946 298.391 208.728 296.94C210.51 295.49 211.51 293.524 211.509 291.475C211.507 289.426 210.504 287.461 208.72 286.013C206.936 284.566 204.517 283.753 201.995 283.755C199.474 283.757 197.056 284.573 195.274 286.023C193.492 287.474 192.491 289.44 192.493 291.489C192.494 293.538 193.497 295.503 195.282 296.95C197.066 298.398 199.485 299.21 202.007 299.208ZM202.037 340.417C204.558 340.415 206.976 339.599 208.758 338.149C210.54 336.698 211.541 334.732 211.539 332.683C211.538 330.634 210.534 328.669 208.75 327.222C206.966 325.774 204.547 324.962 202.025 324.964C199.504 324.965 197.086 325.781 195.304 327.232C193.522 328.682 192.521 330.648 192.523 332.697C192.524 334.746 193.528 336.711 195.312 338.159C197.096 339.606 199.515 340.419 202.037 340.417ZM49.9674 422.945C52.4891 422.943 54.9069 422.127 56.689 420.677C58.471 419.226 59.4713 417.26 59.4698 415.211C59.4683 413.162 58.4652 411.197 56.681 409.75C54.8968 408.302 52.4778 407.49 49.9561 407.491C47.4343 407.493 45.0165 408.309 43.2345 409.759C41.4524 411.21 40.4521 413.176 40.4536 415.225C40.4551 417.274 41.4583 419.239 43.2425 420.686C45.0266 422.134 47.4457 422.946 49.9674 422.945ZM100.707 464.116C103.229 464.114 105.647 463.298 107.429 461.848C109.211 460.397 110.211 458.431 110.21 456.382C110.208 454.333 109.205 452.368 107.421 450.921C105.637 449.473 103.218 448.661 100.696 448.663C98.1744 448.664 95.7565 449.48 93.9745 450.931C92.1924 452.381 91.1921 454.347 91.1936 456.396C91.1951 458.445 92.1983 460.41 93.9825 461.858C95.7667 463.305 98.1857 464.118 100.707 464.116ZM202.218 587.666C204.739 587.665 207.157 586.849 208.939 585.398C210.721 583.948 211.722 581.982 211.72 579.933C211.719 577.884 210.715 575.919 208.931 574.471C207.147 573.024 204.728 572.211 202.206 572.213C199.685 572.215 197.267 573.031 195.485 574.481C193.703 575.932 192.702 577.898 192.704 579.947C192.705 581.996 193.709 583.961 195.493 585.408C197.277 586.856 199.696 587.668 202.218 587.666ZM151.538 628.912C154.06 628.91 156.477 628.094 158.259 626.644C160.042 625.194 161.042 623.228 161.04 621.178C161.039 619.129 160.036 617.165 158.251 615.717C156.467 614.269 154.048 613.457 151.527 613.459C149.005 613.461 146.587 614.276 144.805 615.727C143.023 617.177 142.023 619.143 142.024 621.192C142.026 623.241 143.029 625.206 144.813 626.654C146.597 628.101 149.016 628.914 151.538 628.912ZM252.927 587.629C255.449 587.627 257.867 586.812 259.649 585.361C261.431 583.911 262.431 581.945 262.43 579.896C262.428 577.847 261.425 575.882 259.641 574.434C257.857 572.987 255.438 572.174 252.916 572.176C250.394 572.178 247.977 572.994 246.195 574.444C244.413 575.894 243.412 577.86 243.414 579.91C243.415 581.959 244.418 583.923 246.203 585.371C247.987 586.819 250.406 587.631 252.927 587.629ZM252.867 505.213C255.389 505.211 257.807 504.395 259.589 502.945C261.371 501.494 262.371 499.528 262.37 497.479C262.368 495.43 261.365 493.465 259.581 492.018C257.797 490.57 255.378 489.758 252.856 489.76C250.334 489.761 247.916 490.577 246.134 492.028C244.352 493.478 243.352 495.444 243.353 497.493C243.355 499.542 244.358 501.507 246.142 502.955C247.926 504.402 250.345 505.215 252.867 505.213ZM303.637 587.592C306.159 587.59 308.577 586.775 310.359 585.324C312.141 583.874 313.141 581.908 313.14 579.859C313.138 577.809 312.135 575.845 310.351 574.397C308.567 572.95 306.148 572.137 303.626 572.139C301.104 572.141 298.687 572.957 296.904 574.407C295.122 575.857 294.122 577.823 294.124 579.873C294.125 581.922 295.128 583.886 296.912 585.334C298.697 586.782 301.116 587.594 303.637 587.592ZM405.087 628.726C407.609 628.724 410.027 627.909 411.809 626.458C413.591 625.008 414.591 623.042 414.59 620.993C414.588 618.944 413.585 616.979 411.801 615.531C410.017 614.084 407.598 613.271 405.076 613.273C402.554 613.275 400.136 614.091 398.354 615.541C396.572 616.991 395.572 618.957 395.573 621.007C395.575 623.056 396.578 625.02 398.362 626.468C400.146 627.916 402.566 628.728 405.087 628.726ZM405.057 587.518C407.579 587.516 409.997 586.7 411.779 585.25C413.561 583.8 414.561 581.834 414.56 579.785C414.558 577.735 413.555 575.771 411.771 574.323C409.987 572.875 407.567 572.063 405.046 572.065C402.524 572.067 400.106 572.883 398.324 574.333C396.542 575.783 395.542 577.749 395.543 579.798C395.545 581.848 396.548 583.812 398.332 585.26C400.116 586.708 402.535 587.52 405.057 587.518ZM354.227 422.722C356.748 422.72 359.166 421.904 360.948 420.454C362.73 419.004 363.731 417.038 363.729 414.988C363.728 412.939 362.724 410.975 360.94 409.527C359.156 408.079 356.737 407.267 354.215 407.269C351.694 407.271 349.276 408.086 347.494 409.537C345.712 410.987 344.711 412.953 344.713 415.002C344.714 417.052 345.718 419.016 347.502 420.464C349.286 421.912 351.705 422.724 354.227 422.722ZM404.936 422.685C407.458 422.683 409.876 421.867 411.658 420.417C413.44 418.967 414.44 417.001 414.439 414.951C414.437 412.902 413.434 410.938 411.65 409.49C409.866 408.042 407.447 407.23 404.925 407.232C402.403 407.234 399.986 408.049 398.204 409.5C396.422 410.95 395.421 412.916 395.423 414.965C395.424 417.014 396.427 418.979 398.212 420.427C399.996 421.874 402.415 422.687 404.936 422.685ZM455.827 669.897C458.349 669.896 460.767 669.08 462.549 667.629C464.331 666.179 465.331 664.213 465.33 662.164C465.328 660.115 464.325 658.15 462.541 656.702C460.757 655.255 458.338 654.442 455.816 654.444C453.294 654.446 450.876 655.262 449.094 656.712C447.312 658.163 446.312 660.129 446.314 662.178C446.315 664.227 447.318 666.192 449.102 667.639C450.887 669.087 453.306 669.899 455.827 669.897ZM455.857 711.106C458.379 711.104 460.797 710.288 462.579 708.838C464.361 707.387 465.361 705.421 465.36 703.372C465.358 701.323 464.355 699.359 462.571 697.911C460.787 696.463 458.368 695.651 455.846 695.653C453.324 695.654 450.907 696.47 449.125 697.921C447.342 699.371 446.342 701.337 446.344 703.386C446.345 705.435 447.348 707.4 449.133 708.848C450.917 710.295 453.336 711.108 455.857 711.106ZM506.597 752.277C509.119 752.275 511.537 751.459 513.319 750.009C515.101 748.559 516.101 746.593 516.1 744.543C516.098 742.494 515.095 740.53 513.311 739.082C511.527 737.634 509.108 736.822 506.586 736.824C504.064 736.826 501.647 737.642 499.865 739.092C498.082 740.542 497.082 742.508 497.084 744.557C497.085 746.607 498.088 748.571 499.873 750.019C501.657 751.466 504.076 752.279 506.597 752.277ZM557.036 381.365C559.558 381.363 561.975 380.548 563.758 379.097C565.54 377.647 566.54 375.681 566.538 373.632C566.537 371.583 565.534 369.618 563.75 368.17C561.965 366.723 559.546 365.91 557.025 365.912C554.503 365.914 552.085 366.73 550.303 368.18C548.521 369.63 547.521 371.596 547.522 373.646C547.524 375.695 548.527 377.659 550.311 379.107C552.095 380.555 554.514 381.367 557.036 381.365ZM557.096 463.782C559.618 463.78 562.036 462.964 563.818 461.514C565.6 460.064 566.6 458.098 566.599 456.048C566.597 453.999 565.594 452.035 563.81 450.587C562.026 449.139 559.607 448.327 557.085 448.329C554.563 448.331 552.145 449.146 550.363 450.597C548.581 452.047 547.581 454.013 547.582 456.062C547.584 458.111 548.587 460.076 550.371 461.524C552.156 462.971 554.575 463.784 557.096 463.782ZM607.746 381.328C610.268 381.326 612.685 380.51 614.467 379.06C616.249 377.61 617.25 375.644 617.248 373.595C617.247 371.545 616.244 369.581 614.459 368.133C612.675 366.685 610.256 365.873 607.735 365.875C605.213 365.877 602.795 366.693 601.013 368.143C599.231 369.593 598.231 371.559 598.232 373.609C598.234 375.658 599.237 377.622 601.021 379.07C602.805 380.518 605.224 381.33 607.746 381.328ZM658.426 340.083C660.947 340.081 663.365 339.265 665.147 337.815C666.929 336.364 667.93 334.398 667.928 332.349C667.927 330.3 666.923 328.335 665.139 326.888C663.355 325.44 660.936 324.628 658.414 324.63C655.893 324.631 653.475 325.447 651.693 326.898C649.911 328.348 648.91 330.314 648.912 332.363C648.913 334.412 649.916 336.377 651.701 337.825C653.485 339.272 655.904 340.085 658.426 340.083ZM354.166 340.305C356.688 340.304 359.106 339.488 360.888 338.037C362.67 336.587 363.67 334.621 363.669 332.572C363.667 330.523 362.664 328.558 360.88 327.11C359.096 325.663 356.677 324.85 354.155 324.852C351.633 324.854 349.215 325.67 347.433 327.12C345.651 328.571 344.651 330.537 344.653 332.586C344.654 334.635 345.657 336.6 347.441 338.047C349.226 339.495 351.645 340.307 354.166 340.305ZM354.196 381.514C356.718 381.512 359.136 380.696 360.918 379.246C362.7 377.795 363.7 375.829 363.699 373.78C363.697 371.731 362.694 369.766 360.91 368.319C359.126 366.871 356.707 366.059 354.185 366.061C351.663 366.062 349.246 366.878 347.464 368.329C345.682 369.779 344.681 371.745 344.683 373.794C344.684 375.843 345.687 377.808 347.472 379.256C349.256 380.703 351.675 381.515 354.196 381.514ZM404.846 299.06C407.368 299.058 409.786 298.242 411.568 296.792C413.35 295.342 414.35 293.376 414.348 291.326C414.347 289.277 413.344 287.313 411.56 285.865C409.775 284.417 407.356 283.605 404.835 283.607C402.313 283.609 399.895 284.425 398.113 285.875C396.331 287.325 395.331 289.291 395.332 291.34C395.334 293.39 396.337 295.354 398.121 296.802C399.905 298.25 402.324 299.062 404.846 299.06ZM709.105 298.837C711.627 298.836 714.045 298.02 715.827 296.569C717.609 295.119 718.609 293.153 718.608 291.104C718.606 289.055 717.603 287.09 715.819 285.642C714.035 284.195 711.616 283.382 709.094 283.384C706.572 283.386 704.154 284.202 702.372 285.652C700.59 287.103 699.59 289.069 699.592 291.118C699.593 293.167 700.596 295.132 702.38 296.579C704.165 298.027 706.584 298.839 709.105 298.837ZM658.275 134.041C660.796 134.039 663.214 133.224 664.996 131.773C666.778 130.323 667.779 128.357 667.777 126.308C667.776 124.259 666.772 122.294 664.988 120.846C663.204 119.399 660.785 118.586 658.263 118.588C655.742 118.59 653.324 119.406 651.542 120.856C649.76 122.306 648.76 124.272 648.761 126.322C648.763 128.371 649.766 130.335 651.55 131.783C653.334 133.231 655.753 134.043 658.275 134.041ZM708.955 92.7959C711.476 92.7941 713.894 91.9782 715.676 90.5279C717.458 89.0776 718.458 87.1116 718.457 85.0624C718.455 83.0132 717.452 81.0486 715.668 79.6009C713.884 78.1532 711.465 77.3409 708.943 77.3428C706.421 77.3446 704.004 78.1604 702.222 79.6108C700.44 81.0611 699.439 83.0271 699.441 85.0763C699.442 87.1255 700.445 89.0901 702.23 90.5378C704.014 91.9855 706.433 92.7977 708.955 92.7959ZM607.535 92.8701C610.056 92.8683 612.474 92.0524 614.256 90.6021C616.038 89.1518 617.039 87.1858 617.037 85.1366C617.036 83.0874 616.032 81.1228 614.248 79.6751C612.464 78.2274 610.045 77.4151 607.523 77.417C605.002 77.4188 602.584 78.2347 600.802 79.685C599.02 81.1353 598.019 83.1013 598.021 85.1505C598.022 87.1997 599.026 89.1643 600.81 90.612C602.594 92.0597 605.013 92.872 607.535 92.8701ZM607.505 51.6618C610.026 51.66 612.444 50.8442 614.226 49.3938C616.008 47.9435 617.009 45.9775 617.007 43.9283C617.006 41.8791 616.002 39.9145 614.218 38.4668C612.434 37.0191 610.015 36.2069 607.493 36.2087C604.972 36.2106 602.554 37.0264 600.772 38.4767C598.99 39.927 597.989 41.893 597.991 43.9422C597.992 45.9914 598.996 47.956 600.78 49.4037C602.564 50.8514 604.983 51.6637 607.505 51.6618ZM556.795 51.6989C559.316 51.6971 561.734 50.8813 563.516 49.4309C565.298 47.9806 566.299 46.0146 566.297 43.9654C566.296 41.9162 565.292 39.9517 563.508 38.5039C561.724 37.0562 559.305 36.244 556.783 36.2458C554.262 36.2477 551.844 37.0635 550.062 38.5138C548.28 39.9641 547.279 41.9301 547.281 43.9793C547.282 46.0285 548.286 47.9931 550.07 49.4408C551.854 50.8885 554.273 51.7008 556.795 51.6989ZM506.085 51.736C508.607 51.7342 511.024 50.9184 512.806 49.468C514.589 48.0177 515.589 46.0517 515.587 44.0025C515.586 41.9533 514.583 39.9888 512.798 38.5411C511.014 37.0933 508.595 36.2811 506.074 36.2829C503.552 36.2848 501.134 37.1006 499.352 38.5509C497.57 40.0012 496.57 41.9672 496.571 44.0164C496.573 46.0656 497.576 48.0302 499.36 49.4779C501.144 50.9256 503.563 51.7379 506.085 51.736ZM455.375 51.7731C457.897 51.7713 460.315 50.9555 462.097 49.5052C463.879 48.0548 464.879 46.0888 464.877 44.0396C464.876 41.9904 463.873 40.0259 462.089 38.5782C460.304 37.1304 457.885 36.3182 455.364 36.32C452.842 36.3219 450.424 37.1377 448.642 38.588C446.86 40.0383 445.86 42.0043 445.861 44.0535C445.863 46.1027 446.866 48.0673 448.65 49.515C450.434 50.9627 452.853 51.775 455.375 51.7731ZM-51.6936 93.3525C-49.1719 93.3506 -46.7541 92.5348 -44.972 91.0845C-43.19 89.6342 -42.1896 87.6682 -42.1911 85.6189C-42.1926 83.5697 -43.1958 81.6052 -44.98 80.1575C-46.7642 78.7098 -49.1832 77.8975 -51.7049 77.8993C-54.2266 77.9012 -56.6444 78.717 -58.4265 80.1673C-60.2085 81.6176 -61.2089 83.5836 -61.2074 85.6329C-61.2059 87.6821 -60.2027 89.6466 -58.4185 91.0943C-56.6343 92.542 -54.2153 93.3543 -51.6936 93.3525ZM-153.113 93.4267C-150.592 93.4248 -148.174 92.609 -146.392 91.1587C-144.61 89.7084 -143.609 87.7424 -143.611 85.6932C-143.612 83.6439 -144.616 81.6794 -146.4 80.2317C-148.184 78.784 -150.603 77.9717 -153.125 77.9736C-155.646 77.9754 -158.064 78.7912 -159.846 80.2415C-161.628 81.6918 -162.629 83.6579 -162.627 85.7071C-162.626 87.7563 -161.622 89.7208 -159.838 91.1685C-158.054 92.6162 -155.635 93.4285 -153.113 93.4267ZM-51.6635 134.561C-49.1417 134.559 -46.7239 133.743 -44.9419 132.293C-43.1598 130.842 -42.1595 128.876 -42.161 126.827C-42.1625 124.778 -43.1657 122.813 -44.9499 121.366C-46.734 119.918 -49.153 119.106 -51.6748 119.108C-54.1965 119.109 -56.6143 119.925 -58.3963 121.376C-60.1784 122.826 -61.1787 124.792 -61.1772 126.841C-61.1757 128.89 -60.1725 130.855 -58.3883 132.303C-56.6042 133.75 -54.1851 134.563 -51.6635 134.561ZM-102.343 175.806C-99.8215 175.804 -97.4036 174.988 -95.6216 173.538C-93.8395 172.088 -92.8392 170.122 -92.8407 168.073C-92.8422 166.023 -93.8454 164.059 -95.6296 162.611C-97.4138 161.163 -99.8328 160.351 -102.354 160.353C-104.876 160.355 -107.294 161.171 -109.076 162.621C-110.858 164.071 -111.858 166.037 -111.857 168.087C-111.855 170.136 -110.852 172.1 -109.068 173.548C-107.284 174.996 -104.865 175.808 -102.343 175.806ZM-51.7238 52.1442C-49.202 52.1423 -46.7842 51.3265 -45.0022 49.8762C-43.2201 48.4259 -42.2198 46.4599 -42.2213 44.4107C-42.2228 42.3614 -43.226 40.3969 -45.0102 38.9492C-46.7943 37.5015 -49.2133 36.6892 -51.7351 36.6911C-54.2568 36.6929 -56.6746 37.5087 -58.4566 38.959C-60.2387 40.4093 -61.239 42.3754 -61.2375 44.4246C-61.236 46.4738 -60.2328 48.4383 -58.4486 49.886C-56.6645 51.3337 -54.2455 52.146 -51.7238 52.1442ZM-51.2715 670.268C-48.7498 670.267 -46.332 669.451 -44.5499 668.001C-42.7678 666.55 -41.7675 664.584 -41.769 662.535C-41.7705 660.486 -42.7737 658.521 -44.5579 657.074C-46.3421 655.626 -48.7611 654.814 -51.2828 654.815C-53.8045 654.817 -56.2223 655.633 -58.0044 657.083C-59.7864 658.534 -60.7867 660.5 -60.7852 662.549C-60.7837 664.598 -59.7805 666.563 -57.9964 668.01C-56.2122 669.458 -53.7932 670.27 -51.2715 670.268ZM-0.50129 752.648C2.02041 752.646 4.43825 751.83 6.2203 750.38C8.00235 748.93 9.00266 746.964 9.00116 744.914C8.99966 742.865 7.99648 740.901 6.21231 739.453C4.42814 738.005 2.0091 737.193 -0.512597 737.195C-3.03431 737.197 -5.45212 738.013 -7.23419 739.463C-9.01624 740.913 -10.0165 742.879 -10.015 744.928C-10.0135 746.978 -9.01037 748.942 -7.2262 750.39C-5.44201 751.838 -3.023 752.65 -0.50129 752.648ZM-51.3318 587.852C-48.8101 587.85 -46.3923 587.034 -44.6102 585.584C-42.8281 584.134 -41.8278 582.168 -41.8293 580.118C-41.8308 578.069 -42.834 576.105 -44.6182 574.657C-46.4024 573.209 -48.8214 572.397 -51.3431 572.399C-53.8648 572.401 -56.2826 573.216 -58.0647 574.667C-59.8467 576.117 -60.847 578.083 -60.8455 580.132C-60.844 582.182 -59.8408 584.146 -58.0567 585.594C-56.2725 587.041 -53.8535 587.854 -51.3318 587.852ZM-51.3016 629.06C-48.7799 629.058 -46.3621 628.243 -44.58 626.792C-42.798 625.342 -41.7977 623.376 -41.7992 621.327C-41.8007 619.277 -42.8039 617.313 -44.588 615.865C-46.3722 614.418 -48.7912 613.605 -51.3129 613.607C-53.8346 613.609 -56.2525 614.425 -58.0345 615.875C-59.8166 617.325 -60.8169 619.291 -60.8154 621.341C-60.8139 623.39 -59.8107 625.354 -58.0265 626.802C-56.2423 628.25 -53.8233 629.062 -51.3016 629.06ZM-102.072 546.681C-99.5501 546.679 -97.1323 545.863 -95.3502 544.413C-93.5682 542.962 -92.5679 540.996 -92.5693 538.947C-92.5708 536.898 -93.574 534.933 -95.3582 533.486C-97.1424 532.038 -99.5614 531.226 -102.083 531.228C-104.605 531.229 -107.023 532.045 -108.805 533.496C-110.587 534.946 -111.587 536.912 -111.586 538.961C-111.584 541.01 -110.581 542.975 -108.797 544.423C-107.013 545.87 -104.594 546.683 -102.072 546.681ZM151.146 93.204C153.668 93.2022 156.085 92.3864 157.867 90.9361C159.65 89.4857 160.65 87.5197 160.648 85.4705C160.647 83.4213 159.644 81.4568 157.86 80.0091C156.075 78.5614 153.656 77.7491 151.135 77.7509C148.613 77.7528 146.195 78.5686 144.413 80.0189C142.631 81.4692 141.631 83.4352 141.632 85.4844C141.634 87.5336 142.637 89.4982 144.421 90.9459C146.205 92.3936 148.624 93.2059 151.146 93.204ZM201.856 93.1669C204.377 93.1651 206.795 92.3493 208.577 90.899C210.359 89.4486 211.36 87.4826 211.358 85.4334C211.357 83.3842 210.354 81.4197 208.569 79.972C206.785 78.5243 204.366 77.712 201.844 77.7138C199.323 77.7157 196.905 78.5315 195.123 79.9818C193.341 81.4321 192.341 83.3981 192.342 85.4473C192.344 87.4965 193.347 89.4611 195.131 90.9088C196.915 92.3565 199.334 93.1688 201.856 93.1669ZM151.116 51.9958C153.637 51.9939 156.055 51.1781 157.837 49.7278C159.619 48.2775 160.62 46.3114 160.618 44.2622C160.617 42.213 159.614 40.2485 157.829 38.8008C156.045 37.3531 153.626 36.5408 151.104 36.5426C148.583 36.5445 146.165 37.3603 144.383 38.8106C142.601 40.2609 141.601 42.2269 141.602 44.2762C141.604 46.3254 142.607 48.2899 144.391 49.7376C146.175 51.1853 148.594 51.9976 151.116 51.9958ZM252.626 175.546C255.148 175.545 257.565 174.729 259.348 173.278C261.13 171.828 262.13 169.862 262.128 167.813C262.127 165.764 261.124 163.799 259.34 162.351C257.555 160.904 255.136 160.091 252.615 160.093C250.093 160.095 247.675 160.911 245.893 162.361C244.111 163.812 243.111 165.778 243.112 167.827C243.114 169.876 244.117 171.841 245.901 173.288C247.685 174.736 250.104 175.548 252.626 175.546ZM303.306 134.301C305.827 134.299 308.245 133.483 310.027 132.033C311.809 130.583 312.81 128.617 312.808 126.568C312.807 124.518 311.803 122.554 310.019 121.106C308.235 119.658 305.816 118.846 303.294 118.848C300.773 118.85 298.355 119.666 296.573 121.116C294.791 122.566 293.79 124.532 293.792 126.581C293.793 128.631 294.797 130.595 296.581 132.043C298.365 133.491 300.784 134.303 303.306 134.301ZM303.245 51.8844C305.767 51.8826 308.185 51.0668 309.967 49.6165C311.749 48.1662 312.749 46.2001 312.748 44.1509C312.746 42.1017 311.743 40.1372 309.959 38.6895C308.175 37.2418 305.756 36.4295 303.234 36.4313C300.712 36.4332 298.295 37.249 296.512 38.6993C294.73 40.1496 293.73 42.1156 293.732 44.1648C293.733 46.2141 294.736 48.1786 296.52 49.6263C298.305 51.074 300.724 51.8863 303.245 51.8844ZM658.546 504.916C661.068 504.914 663.486 504.098 665.268 502.648C667.05 501.198 668.05 499.232 668.049 497.182C668.047 495.133 667.044 493.169 665.26 491.721C663.476 490.273 661.057 489.461 658.535 489.463C656.013 489.465 653.595 490.28 651.813 491.731C650.031 493.181 649.031 495.147 649.032 497.196C649.034 499.246 650.037 501.21 651.821 502.658C653.605 504.105 656.024 504.918 658.546 504.916ZM607.866 546.161C610.388 546.159 612.806 545.344 614.588 543.893C616.37 542.443 617.37 540.477 617.369 538.428C617.367 536.379 616.364 534.414 614.58 532.966C612.796 531.519 610.377 530.706 607.855 530.708C605.333 530.71 602.916 531.526 601.134 532.976C599.351 534.426 598.351 536.393 598.353 538.442C598.354 540.491 599.357 542.455 601.142 543.903C602.926 545.351 605.345 546.163 607.866 546.161ZM607.897 587.37C610.418 587.368 612.836 586.552 614.618 585.102C616.4 583.651 617.401 581.685 617.399 579.636C617.398 577.587 616.394 575.622 614.61 574.175C612.826 572.727 610.407 571.915 607.885 571.916C605.364 571.918 602.946 572.734 601.164 574.184C599.382 575.635 598.381 577.601 598.383 579.65C598.384 581.699 599.388 583.664 601.172 585.111C602.956 586.559 605.375 587.371 607.897 587.37ZM607.927 628.578C610.448 628.576 612.866 627.76 614.648 626.31C616.43 624.86 617.431 622.894 617.429 620.844C617.428 618.795 616.424 616.831 614.64 615.383C612.856 613.935 610.437 613.123 607.915 613.125C605.394 613.127 602.976 613.942 601.194 615.393C599.412 616.843 598.411 618.809 598.413 620.858C598.414 622.907 599.418 624.872 601.202 626.32C602.986 627.767 605.405 628.58 607.927 628.578ZM-152.842 464.301C-150.32 464.299 -147.902 463.484 -146.12 462.033C-144.338 460.583 -143.338 458.617 -143.34 456.568C-143.341 454.519 -144.344 452.554 -146.128 451.106C-147.913 449.659 -150.332 448.846 -152.853 448.848C-155.375 448.85 -157.793 449.666 -159.575 451.116C-161.357 452.566 -162.357 454.532 -162.356 456.582C-162.354 458.631 -161.351 460.595 -159.567 462.043C-157.783 463.491 -155.364 464.303 -152.842 464.301ZM-152.812 505.51C-150.29 505.508 -147.872 504.692 -146.09 503.242C-144.308 501.791 -143.308 499.825 -143.309 497.776C-143.311 495.727 -144.314 493.762 -146.098 492.315C-147.882 490.867 -150.301 490.055 -152.823 490.056C-155.345 490.058 -157.763 490.874 -159.545 492.324C-161.327 493.775 -162.327 495.741 -162.326 497.79C-162.324 499.839 -161.321 501.804 -159.537 503.251C-157.753 504.699 -155.334 505.511 -152.812 505.51ZM-152.872 423.093C-150.35 423.091 -147.933 422.275 -146.151 420.825C-144.368 419.375 -143.368 417.409 -143.37 415.359C-143.371 413.31 -144.374 411.346 -146.159 409.898C-147.943 408.45 -150.362 407.638 -152.883 407.64C-155.405 407.642 -157.823 408.458 -159.605 409.908C-161.387 411.358 -162.387 413.324 -162.386 415.373C-162.384 417.423 -161.381 419.387 -159.597 420.835C-157.813 422.283 -155.394 423.095 -152.872 423.093ZM-102.162 423.056C-99.6406 423.054 -97.2227 422.238 -95.4407 420.788C-93.6586 419.338 -92.6583 417.372 -92.6598 415.322C-92.6613 413.273 -93.6645 411.309 -95.4487 409.861C-97.2328 408.413 -99.6519 407.601 -102.174 407.603C-104.695 407.605 -107.113 408.42 -108.895 409.871C-110.677 411.321 -111.678 413.287 -111.676 415.336C-111.675 417.385 -110.671 419.35 -108.887 420.798C-107.103 422.245 -104.684 423.058 -102.162 423.056ZM-153.023 217.052C-150.501 217.05 -148.083 216.234 -146.301 214.784C-144.519 213.333 -143.519 211.367 -143.52 209.318C-143.522 207.269 -144.525 205.304 -146.309 203.857C-148.093 202.409 -150.512 201.597 -153.034 201.598C-155.556 201.6 -157.974 202.416 -159.756 203.866C-161.538 205.317 -162.538 207.283 -162.537 209.332C-162.535 211.381 -161.532 213.346 -159.748 214.793C-157.964 216.241 -155.545 217.053 -153.023 217.052ZM-51.4825 381.81C-48.9608 381.809 -46.543 380.993 -44.7609 379.543C-42.9789 378.092 -41.9786 376.126 -41.9801 374.077C-41.9816 372.028 -42.9848 370.063 -44.7689 368.616C-46.5531 367.168 -48.9721 366.356 -51.4938 366.357C-54.0155 366.359 -56.4334 367.175 -58.2154 368.625C-59.9975 370.076 -60.9978 372.042 -60.9963 374.091C-60.9948 376.14 -59.9916 378.105 -58.2074 379.552C-56.4233 381 -54.0042 381.812 -51.4825 381.81ZM-0.802808 340.565C1.71889 340.563 4.13673 339.747 5.91879 338.297C7.70084 336.847 8.70114 334.881 8.69964 332.832C8.69814 330.782 7.69496 328.818 5.91079 327.37C4.12662 325.922 1.70758 325.11 -0.814115 325.112C-3.33583 325.114 -5.75364 325.93 -7.53571 327.38C-9.31776 328.83 -10.3181 330.796 -10.3166 332.846C-10.3151 334.895 -9.31188 336.859 -7.52771 338.307C-5.74353 339.755 -3.32452 340.567 -0.802808 340.565Z" fill="#E9EAF0" fill-opacity="0.18"/>
</svg>
