<svg width="826" height="699" viewBox="0 0 826 699" fill="none" xmlns="http://www.w3.org/2000/svg">
<path d="M339.723 506.638C338.837 504.281 338.97 501.564 340.097 499.013C341.225 496.462 343.265 494.258 345.824 492.829C348.382 491.4 351.277 490.848 353.945 491.279C356.614 491.71 358.867 493.095 360.268 495.164C361.669 497.233 362.117 499.839 361.527 502.477C360.936 505.115 359.348 507.597 357.071 509.442C354.794 511.287 351.99 512.363 349.203 512.462C346.415 512.561 343.843 511.675 341.984 509.977L255.494 568.532L253.233 565.192L339.723 506.638ZM707.783 374.344C706.896 371.988 707.03 369.271 708.157 366.719C709.284 364.168 711.325 361.964 713.883 360.535C716.442 359.106 719.336 358.554 722.005 358.985C724.674 359.417 726.927 360.801 728.327 362.87C729.728 364.939 730.177 367.545 729.586 370.183C728.995 372.822 727.408 375.304 725.13 377.148C722.853 378.993 720.049 380.069 717.262 380.168C714.474 380.267 711.902 379.382 710.044 377.684L470.577 539.804L468.316 536.464L707.783 374.344ZM769.142 220.789C770.028 223.146 769.895 225.863 768.768 228.414C767.64 230.965 765.6 233.169 763.041 234.598C760.483 236.027 757.588 236.579 754.92 236.148C752.251 235.717 749.998 234.332 748.597 232.263C747.196 230.194 746.748 227.588 747.339 224.95C747.929 222.312 749.517 219.83 751.794 217.985C754.071 216.14 756.875 215.064 759.663 214.965C762.45 214.866 765.022 215.752 766.881 217.45L849.449 161.551L851.71 164.89L769.142 220.789ZM787.229 247.506C788.115 249.862 787.982 252.579 786.855 255.13C785.728 257.682 783.687 259.886 781.128 261.315C778.57 262.743 775.676 263.296 773.007 262.864C770.338 262.433 768.085 261.049 766.684 258.98C765.283 256.911 764.835 254.304 765.426 251.666C766.016 249.028 767.604 246.546 769.881 244.701C772.158 242.857 774.962 241.78 777.75 241.681C780.537 241.583 783.109 242.468 784.968 244.166L867.536 188.267L869.797 191.607L787.229 247.506ZM670.518 48.9192C669.631 46.563 669.764 43.8458 670.892 41.2945C672.019 38.7431 674.06 36.5393 676.618 35.1104C679.177 33.6815 682.071 33.1292 684.74 33.5606C687.408 33.9921 689.662 35.3764 691.062 37.4454C692.463 39.5144 692.911 42.1206 692.321 44.7586C691.73 47.3967 690.142 49.8788 687.865 51.7236C685.588 53.5685 682.784 54.6446 679.997 54.7435C677.209 54.8424 674.637 53.9569 672.778 52.2588L503.72 166.712C504.606 169.069 504.473 171.786 503.346 174.337C502.219 176.888 500.178 179.092 497.619 180.521C495.061 181.95 492.167 182.502 489.498 182.071C486.829 181.639 484.576 180.255 483.175 178.186C481.774 176.117 481.326 173.511 481.917 170.873C482.507 168.235 484.095 165.753 486.372 163.908C488.649 162.063 491.453 160.987 494.241 160.888C497.028 160.789 499.601 161.675 501.459 163.373L670.518 48.9192ZM114.179 308.679C113.293 306.322 113.426 303.605 114.554 301.054C115.681 298.502 117.721 296.299 120.28 294.87C122.839 293.441 125.733 292.889 128.402 293.32C131.07 293.751 133.323 295.136 134.724 297.205C136.125 299.274 136.573 301.88 135.983 304.518C135.392 307.156 133.804 309.638 131.527 311.483C129.25 313.328 126.446 314.404 123.659 314.503C120.871 314.602 118.299 313.716 116.44 312.018L92.7094 328.084L90.4485 324.745L114.179 308.679ZM517.012 118.752C517.899 121.108 517.766 123.825 516.638 126.376C515.511 128.928 513.471 131.132 510.912 132.56C508.353 133.989 505.459 134.542 502.79 134.11C500.122 133.679 497.869 132.294 496.468 130.225C495.067 128.156 494.619 125.55 495.209 122.912C495.8 120.274 497.388 117.792 499.665 115.947C501.942 114.102 504.746 113.026 507.533 112.927C510.321 112.829 512.893 113.714 514.752 115.412L683.81 0.958504C682.924 -1.39771 683.057 -4.11486 684.184 -6.66622C685.311 -9.21759 687.352 -11.4213 689.911 -12.8503C692.469 -14.2792 695.364 -14.8315 698.032 -14.4001C700.701 -13.9687 702.954 -12.5842 704.355 -10.5153C705.756 -8.44628 706.204 -5.84012 705.613 -3.20204C705.023 -0.563955 703.435 1.9181 701.158 3.76293C698.881 5.60777 696.077 6.68393 693.289 6.78282C690.502 6.8817 687.93 5.9962 686.071 4.29806L517.012 118.752ZM519.69 -131.197C522.351 -132.395 525.247 -132.676 527.815 -131.985C530.384 -131.293 532.442 -129.679 533.592 -127.455C534.741 -125.232 534.9 -122.556 534.036 -119.948C533.173 -117.34 531.349 -114.986 528.919 -113.34C526.489 -111.695 523.626 -110.877 520.884 -111.044C518.142 -111.211 515.717 -112.352 514.079 -114.245C512.441 -116.138 511.707 -118.649 512.019 -121.29C512.331 -123.932 513.667 -126.516 515.768 -128.542L502.089 -148.746L506.012 -151.402L519.69 -131.197ZM629.304 301.093C631.965 299.895 634.861 299.614 637.429 300.306C639.998 300.997 642.056 302.611 643.206 304.835C644.355 307.059 644.513 309.734 643.65 312.342C642.787 314.95 640.963 317.305 638.533 318.95C636.103 320.595 633.239 321.414 630.497 321.246C627.755 321.079 625.33 319.939 623.692 318.045C622.055 316.152 621.321 313.642 621.633 311C621.945 308.359 623.281 305.774 625.382 303.749L564.111 213.247C561.45 214.445 558.555 214.726 555.986 214.034C553.418 213.343 551.359 211.729 550.21 209.505C549.061 207.281 548.902 204.606 549.766 201.998C550.629 199.39 552.452 197.035 554.882 195.39C557.312 193.745 560.176 192.926 562.918 193.094C565.66 193.261 568.085 194.401 569.723 196.295C571.361 198.188 572.095 200.698 571.783 203.34C571.471 205.981 570.135 208.566 568.034 210.591L629.304 301.093ZM499.389 -93.5892L565.068 3.42474L686.665 -78.8969L688.925 -75.5573L563.406 9.41981L495.466 -90.9337C492.805 -89.7355 489.91 -89.4549 487.341 -90.1463C484.773 -90.8376 482.714 -92.4517 481.565 -94.6755C480.416 -96.8994 480.257 -99.5746 481.121 -102.183C481.984 -104.79 483.807 -107.145 486.237 -108.791C488.668 -110.436 491.531 -111.254 494.273 -111.087C497.015 -110.92 499.44 -109.779 501.078 -107.886C502.716 -105.993 503.45 -103.482 503.138 -100.841C502.826 -98.1991 501.49 -95.615 499.389 -93.5892ZM548.856 -88.1171L578.36 -44.5359L668.577 -105.613L670.838 -102.274L576.699 -38.5409L544.933 -85.4616C542.272 -84.2634 539.377 -83.9828 536.808 -84.6741C534.24 -85.3655 532.181 -86.9796 531.032 -89.2034C529.883 -91.4273 529.724 -94.1025 530.587 -96.7104C531.451 -99.3184 533.274 -101.673 535.704 -103.318C538.134 -104.964 540.998 -105.782 543.74 -105.615C546.482 -105.448 548.907 -104.307 550.545 -102.414C552.183 -100.521 552.917 -98.01 552.605 -95.3685C552.293 -92.727 550.957 -90.1428 548.856 -88.1171ZM406.34 242.136L490.107 365.866L521.486 344.622L535.165 364.826C537.826 363.628 540.721 363.347 543.29 364.039C545.858 364.73 547.917 366.344 549.066 368.568C550.215 370.792 550.374 373.467 549.511 376.075C548.647 378.683 546.824 381.038 544.394 382.683C541.964 384.328 539.1 385.146 536.358 384.979C533.616 384.812 531.191 383.671 529.553 381.778C527.915 379.885 527.181 377.374 527.493 374.733C527.805 372.091 529.141 369.507 531.242 367.482L519.825 350.617L488.445 371.861L402.418 244.791C399.757 245.989 396.861 246.27 394.293 245.579C391.724 244.887 389.666 243.273 388.517 241.049C387.367 238.825 387.209 236.15 388.072 233.542C388.935 230.934 390.759 228.58 393.189 226.934C395.619 225.289 398.483 224.471 401.225 224.638C403.967 224.805 406.392 225.946 408.03 227.839C409.667 229.732 410.401 232.243 410.089 234.884C409.777 237.526 408.441 240.11 406.34 242.136ZM370.012 213.401C369.126 211.045 369.259 208.328 370.386 205.777C371.514 203.225 373.554 201.022 376.113 199.593C378.671 198.164 381.566 197.611 384.234 198.043C386.903 198.474 389.156 199.859 390.557 201.928C391.958 203.997 392.406 206.603 391.816 209.241C391.225 211.879 389.637 214.361 387.36 216.206C385.083 218.051 382.279 219.127 379.491 219.226C376.704 219.325 374.132 218.439 372.273 216.741L352.465 230.151L406.726 310.301L351.615 347.611C352.502 349.967 352.368 352.684 351.241 355.236C350.114 357.787 348.073 359.991 345.515 361.42C342.956 362.849 340.062 363.401 337.393 362.969C334.725 362.538 332.471 361.154 331.071 359.085C329.67 357.016 329.221 354.41 329.812 351.771C330.403 349.133 331.991 346.651 334.268 344.806C336.545 342.962 339.349 341.885 342.136 341.787C344.924 341.688 347.496 342.573 349.354 344.271L400.543 309.617L346.281 229.467L370.012 213.401ZM504.811 438.704C505.697 441.061 505.564 443.778 504.437 446.329C503.309 448.88 501.269 451.084 498.71 452.513C496.152 453.942 493.257 454.494 490.589 454.063C487.92 453.631 485.667 452.247 484.266 450.178C482.865 448.109 482.417 445.503 483.008 442.865C483.598 440.227 485.186 437.745 487.463 435.9C489.74 434.055 492.544 432.979 495.332 432.88C498.119 432.781 500.691 433.667 502.55 435.365L616.498 358.221L532.732 234.491C530.07 235.689 527.175 235.97 524.606 235.279C522.038 234.587 519.98 232.973 518.83 230.749C517.681 228.525 517.522 225.85 518.386 223.242C519.249 220.634 521.072 218.279 523.503 216.634C525.933 214.989 528.796 214.171 531.538 214.338C534.28 214.505 536.705 215.646 538.343 217.539C539.981 219.432 540.715 221.943 540.403 224.584C540.091 227.226 538.755 229.81 536.654 231.836L622.681 358.905L504.811 438.704ZM401.082 353.083C401.969 355.439 401.835 358.156 400.708 360.708C399.581 363.259 397.54 365.463 394.982 366.892C392.423 368.321 389.529 368.873 386.86 368.442C384.191 368.01 381.938 366.626 380.538 364.557C379.137 362.488 378.688 359.882 379.279 357.244C379.87 354.605 381.458 352.123 383.735 350.279C386.012 348.434 388.816 347.358 391.603 347.259C394.391 347.16 396.963 348.045 398.821 349.743L422.552 333.677L476.814 413.827L496.622 400.416C495.736 398.06 495.869 395.343 496.996 392.791C498.124 390.24 500.164 388.036 502.723 386.607C505.281 385.178 508.176 384.626 510.844 385.058C513.513 385.489 515.766 386.873 517.167 388.942C518.568 391.011 519.016 393.618 518.426 396.256C517.835 398.894 516.247 401.376 513.97 403.221C511.693 405.065 508.889 406.142 506.101 406.24C503.314 406.339 500.742 405.454 498.883 403.756L475.152 419.822L420.891 339.673L401.082 353.083ZM450.614 577.913C453.275 576.715 456.171 576.434 458.739 577.126C461.308 577.817 463.366 579.431 464.516 581.655C465.665 583.879 465.824 586.554 464.96 589.162C464.097 591.77 462.274 594.125 459.843 595.77C457.413 597.415 454.55 598.233 451.808 598.066C449.066 597.899 446.641 596.758 445.003 594.865C443.365 592.972 442.631 590.461 442.943 587.82C443.255 585.178 444.591 582.594 446.692 580.569L435.274 563.704L407.817 582.293L441.73 632.386L437.808 635.041L401.634 581.609L436.936 557.709L450.614 577.913ZM662.019 171.557C661.133 169.201 661.266 166.484 662.394 163.932C663.521 161.381 665.561 159.177 668.12 157.748C670.679 156.319 673.573 155.767 676.242 156.198C678.91 156.63 681.163 158.014 682.564 160.083C683.965 162.152 684.413 164.758 683.823 167.396C683.232 170.035 681.644 172.517 679.367 174.361C677.09 176.206 674.286 177.282 671.499 177.381C668.711 177.48 666.139 176.595 664.28 174.897L644.472 188.307L750.734 345.266L844.873 281.533L881.048 334.966L877.125 337.621L843.212 287.528L749.072 351.261L638.288 187.623L662.019 171.557ZM678.706 87.2073C679.592 89.5636 679.459 92.2807 678.332 94.8321C677.205 97.3834 675.164 99.5872 672.605 101.016C670.047 102.445 667.153 102.997 664.484 102.566C661.815 102.134 659.562 100.75 658.161 98.6811C656.761 96.6121 656.312 94.006 656.903 91.3679C657.493 88.7298 659.081 86.2478 661.358 84.4029C663.635 82.5581 666.439 81.4819 669.227 81.3831C672.014 81.2842 674.587 82.1697 676.445 83.8678L700.176 67.8018L750.029 141.439C752.69 140.241 755.585 139.96 758.154 140.651C760.722 141.343 762.781 142.957 763.93 145.181C765.08 147.405 765.238 150.08 764.375 152.688C763.511 155.296 761.688 157.651 759.258 159.296C756.828 160.941 753.964 161.759 751.222 161.592C748.48 161.425 746.055 160.284 744.417 158.391C742.779 156.498 742.045 153.987 742.357 151.346C742.669 148.704 744.005 146.12 746.106 144.094L698.514 73.7969L678.706 87.2073ZM661.71 332.483C662.596 334.839 662.463 337.556 661.336 340.108C660.208 342.659 658.168 344.863 655.609 346.292C653.051 347.721 650.156 348.273 647.488 347.841C644.819 347.41 642.566 346.026 641.165 343.957C639.764 341.888 639.316 339.282 639.906 336.643C640.497 334.005 642.085 331.523 644.362 329.679C646.639 327.834 649.443 326.758 652.231 326.659C655.018 326.56 657.59 327.445 659.449 329.143L679.257 315.733L588.822 182.151L620.201 160.907L604.375 137.53L521.807 193.429C522.693 195.785 522.56 198.502 521.433 201.054C520.306 203.605 518.265 205.809 515.706 207.238C513.148 208.666 510.254 209.219 507.585 208.787C504.916 208.356 502.663 206.972 501.262 204.903C499.862 202.834 499.413 200.227 500.004 197.589C500.594 194.951 502.182 192.469 504.459 190.624C506.736 188.78 509.54 187.703 512.328 187.605C515.115 187.506 517.688 188.391 519.546 190.089L606.037 131.535L626.385 161.591L595.005 182.835L685.441 316.417L661.71 332.483ZM593.375 -132.624C592.488 -134.98 592.621 -137.697 593.749 -140.248C594.876 -142.8 596.916 -145.003 599.475 -146.432C602.034 -147.861 604.928 -148.414 607.597 -147.982C610.265 -147.551 612.519 -146.166 613.919 -144.097C615.32 -142.028 615.768 -139.422 615.178 -136.784C614.587 -134.146 612.999 -131.664 610.722 -129.819C608.445 -127.974 605.641 -126.898 602.854 -126.799C600.066 -126.7 597.494 -127.586 595.635 -129.284L571.904 -113.218L533.469 -169.99L537.392 -172.646L573.566 -119.213L593.375 -132.624ZM307.407 231.191L357.259 304.828L270.769 363.383C271.655 365.739 271.522 368.456 270.395 371.008C269.267 373.559 267.227 375.763 264.668 377.192C262.11 378.621 259.215 379.173 256.547 378.742C253.878 378.31 251.625 376.926 250.224 374.857C248.823 372.788 248.375 370.182 248.965 367.544C249.556 364.906 251.144 362.423 253.421 360.579C255.698 358.734 258.502 357.658 261.29 357.559C264.077 357.46 266.649 358.345 268.508 360.043L351.076 304.144L303.484 233.847C300.823 235.045 297.927 235.326 295.359 234.634C292.79 233.943 290.732 232.329 289.583 230.105C288.433 227.881 288.275 225.206 289.138 222.598C290.001 219.99 291.825 217.635 294.255 215.99C296.685 214.345 299.549 213.527 302.291 213.694C305.033 213.861 307.458 215.001 309.096 216.895C310.734 218.788 311.468 221.298 311.155 223.94C310.843 226.581 309.507 229.166 307.407 231.191ZM144.159 176.368C145.045 178.724 144.912 181.442 143.785 183.993C142.657 186.544 140.617 188.748 138.058 190.177C135.5 191.606 132.605 192.158 129.937 191.727C127.268 191.295 125.015 189.911 123.614 187.842C122.213 185.773 121.765 183.167 122.355 180.529C122.946 177.891 124.534 175.409 126.811 173.564C129.088 171.719 131.892 170.643 134.679 170.544C137.467 170.445 140.039 171.331 141.898 173.029L193.086 138.374L156.912 84.9411L160.834 82.2856L199.269 139.058L144.159 176.368ZM266.438 103.081L298.203 150.002L235.444 192.491L307.792 299.356L284.061 315.422C284.948 317.779 284.814 320.496 283.687 323.047C282.56 325.598 280.519 327.802 277.961 329.231C275.402 330.66 272.508 331.212 269.839 330.781C267.17 330.35 264.917 328.965 263.517 326.896C262.116 324.827 261.667 322.221 262.258 319.583C262.849 316.945 264.437 314.463 266.714 312.618C268.991 310.773 271.795 309.697 274.582 309.598C277.37 309.499 279.942 310.385 281.8 312.083L301.609 298.672L229.26 191.807L292.02 149.318L262.515 105.737C259.854 106.935 256.959 107.216 254.39 106.524C251.822 105.833 249.763 104.219 248.614 101.995C247.464 99.7713 247.306 97.0961 248.169 94.4882C249.033 91.8802 250.856 89.5254 253.286 87.8802C255.716 86.235 258.58 85.4166 261.322 85.5837C264.064 85.7508 266.489 86.8916 268.127 88.7847C269.765 90.6778 270.499 93.1885 270.187 95.8301C269.875 98.4716 268.539 101.056 266.438 103.081ZM292.559 192.785C293.446 195.141 293.313 197.858 292.185 200.409C291.058 202.961 289.018 205.164 286.459 206.593C283.9 208.022 281.006 208.575 278.337 208.143C275.669 207.712 273.415 206.327 272.015 204.258C270.614 202.189 270.166 199.583 270.756 196.945C271.347 194.307 272.935 191.825 275.212 189.98C277.489 188.135 280.293 187.059 283.08 186.96C285.868 186.861 288.44 187.747 290.299 189.445L341.487 154.79L293.895 84.4927C291.234 85.6909 288.338 85.9715 285.77 85.2801C283.201 84.5888 281.143 82.9747 279.994 80.7508C278.844 78.527 278.686 75.8518 279.549 73.2439C280.412 70.6359 282.236 68.2811 284.666 66.6359C287.096 64.9907 289.96 64.1723 292.702 64.3394C295.444 64.5066 297.869 65.6473 299.507 67.5404C301.145 69.4336 301.879 71.9443 301.566 74.5858C301.254 77.2273 299.918 79.8114 297.818 81.8372L347.67 155.474L292.559 192.785ZM251.591 64.6747C252.477 67.0309 252.344 69.7481 251.217 72.2994C250.089 74.8508 248.049 77.0545 245.49 78.4835C242.932 79.9124 240.037 80.4647 237.369 80.0332C234.7 79.6018 232.447 78.2174 231.046 76.1484C229.645 74.0794 229.197 71.4733 229.787 68.8352C230.378 66.1971 231.966 63.7151 234.243 61.8703C236.52 60.0254 239.324 58.9493 242.112 58.8504C244.899 58.7515 247.471 59.637 249.33 61.3351L304.441 24.0248L354.293 97.6619C356.954 96.4637 359.85 96.1832 362.418 96.8745C364.987 97.5659 367.045 99.1799 368.195 101.404C369.344 103.628 369.502 106.303 368.639 108.911C367.776 111.519 365.952 113.874 363.522 115.519C361.092 117.164 358.228 117.982 355.486 117.815C352.744 117.648 350.319 116.507 348.682 114.614C347.044 112.721 346.31 110.21 346.622 107.569C346.934 104.927 348.27 102.343 350.371 100.317L302.779 30.0199L251.591 64.6747ZM757.25 379.816C756.363 377.46 756.497 374.743 757.624 372.191C758.751 369.64 760.792 367.436 763.35 366.007C765.909 364.578 768.803 364.026 771.472 364.458C774.141 364.889 776.394 366.273 777.794 368.342C779.195 370.411 779.644 373.017 779.053 375.656C778.462 378.294 776.874 380.776 774.597 382.621C772.32 384.465 769.516 385.542 766.729 385.64C763.941 385.739 761.369 384.854 759.511 383.156L520.044 545.276L535.87 568.653L531.947 571.309L513.86 544.592L757.25 379.816ZM644.086 120.142L655.504 137.007L686.883 115.762L725.319 172.535L693.939 193.779L764.026 297.305L858.166 233.572L912.427 313.722L908.505 316.377L856.504 239.567L762.365 303.3L687.755 193.095L719.135 171.851L685.222 121.758L653.842 143.002L640.164 122.798C637.502 123.996 634.607 124.276 632.039 123.585C629.47 122.894 627.412 121.28 626.262 119.056C625.113 116.832 624.954 114.157 625.818 111.549C626.681 108.941 628.504 106.586 630.935 104.941C633.365 103.296 636.228 102.477 638.97 102.644C641.712 102.811 644.137 103.952 645.775 105.845C647.413 107.738 648.147 110.249 647.835 112.891C647.523 115.532 646.187 118.116 644.086 120.142ZM126.071 149.652C126.958 152.008 126.825 154.725 125.697 157.277C124.57 159.828 122.53 162.032 119.971 163.461C117.412 164.89 114.518 165.442 111.849 165.01C109.181 164.579 106.927 163.195 105.527 161.126C104.126 159.057 103.678 156.45 104.268 153.812C104.859 151.174 106.447 148.692 108.724 146.847C111.001 145.003 113.805 143.926 116.592 143.828C119.38 143.729 121.952 144.614 123.811 146.312L143.619 132.902L127.793 109.525L96.413 130.769L94.1521 127.43L129.454 103.53L149.802 133.586L126.071 149.652ZM381.904 54.3746C382.791 56.7308 382.657 59.448 381.53 61.9994C380.403 64.5507 378.362 66.7545 375.804 68.1834C373.245 69.6123 370.351 70.1646 367.682 69.7332C365.013 69.3018 362.76 67.9174 361.36 65.8484C359.959 63.7794 359.51 61.1732 360.101 58.5352C360.692 55.8971 362.28 53.415 364.557 51.5702C366.834 49.7254 369.638 48.6492 372.425 48.5503C375.213 48.4514 377.785 49.3369 379.643 51.0351L430.832 16.3803L376.57 -63.7689L474.632 -130.157L476.893 -126.818L382.754 -63.0849L437.015 17.0643L381.904 54.3746ZM233.503 37.9583C233.973 39.2071 234.161 40.5688 234.055 41.9656C233.949 43.3624 233.553 44.767 232.888 46.0991C232.223 47.4313 231.302 48.6649 230.179 49.7296C229.056 50.7942 227.751 51.6691 226.341 52.3042C224.93 52.9393 223.441 53.3222 221.958 53.4311C220.475 53.54 219.028 53.3726 217.698 52.9387C215.013 52.0622 212.971 50.1529 212.022 47.6308L216.082 44.8823C216.282 45.849 216.734 46.7213 217.401 47.4261C218.068 48.1308 218.931 48.6476 219.917 48.933C220.903 49.2184 221.983 49.2641 223.068 49.0664C224.152 48.8686 225.209 48.4331 226.149 47.7964C227.09 47.1597 227.887 46.3403 228.473 45.4069C229.059 44.4735 229.418 43.4534 229.519 42.4319C229.621 41.4105 229.461 40.4175 229.055 39.5363C228.648 38.6551 228.006 37.9112 227.183 37.3672L349.113 -45.1801L387.548 11.5922L352.246 35.492L338.567 15.2877C335.906 16.4859 333.011 16.7665 330.442 16.0752C327.874 15.3838 325.815 13.7697 324.666 11.5459C323.517 9.32202 323.358 6.64679 324.222 4.03888C325.085 1.43095 326.908 -0.923875 329.338 -2.56908C331.769 -4.21429 334.632 -5.03266 337.374 -4.86554C340.116 -4.69841 342.541 -3.55771 344.179 -1.66456C345.817 0.228569 346.551 2.73931 346.239 5.38081C345.927 8.02234 344.591 10.6065 342.49 12.6322L353.907 29.497L381.365 10.9082L347.451 -39.1851L233.503 37.9583ZM342.026 198.257C342.913 200.613 342.779 203.33 341.652 205.881C340.525 208.433 338.484 210.637 335.926 212.065C333.367 213.494 330.473 214.047 327.804 213.615C325.136 213.184 322.882 211.799 321.482 209.73C320.081 207.661 319.632 205.055 320.223 202.417C320.814 199.779 322.402 197.297 324.679 195.452C326.956 193.607 329.76 192.531 332.547 192.432C335.335 192.334 337.907 193.219 339.765 194.917L377.225 169.557L403.81 73.6354L480.299 21.8524L432.707 -48.4451C430.046 -47.2469 427.15 -46.9663 424.582 -47.6577C422.013 -48.3491 419.955 -49.9631 418.805 -52.187C417.656 -54.4108 417.498 -57.0861 418.361 -59.694C419.224 -62.3019 421.048 -64.6567 423.478 -66.3019C425.908 -67.9471 428.772 -68.7655 431.514 -68.5984C434.256 -68.4313 436.681 -67.2906 438.318 -65.3974C439.956 -63.5043 440.69 -60.9936 440.378 -58.352C440.066 -55.7105 438.73 -53.1264 436.629 -51.1006L486.482 22.5365L407.699 75.8729L381.114 171.794L342.026 198.257ZM498.99 311.393C501.652 310.195 504.547 309.914 507.116 310.606C509.684 311.297 511.742 312.911 512.892 315.135C514.041 317.359 514.2 320.034 513.336 322.642C512.473 325.25 510.65 327.605 508.219 329.25C505.789 330.895 502.926 331.714 500.184 331.546C497.442 331.379 495.017 330.239 493.379 328.346C491.741 326.452 491.007 323.942 491.319 321.3C491.631 318.659 492.967 316.074 495.068 314.049L408.577 186.294L434.822 91.6018L529.766 27.3246L464.087 -69.6894C461.425 -68.4912 458.53 -68.2106 455.961 -68.902C453.393 -69.5933 451.335 -71.2074 450.185 -73.4313C449.036 -75.6551 448.877 -78.3304 449.741 -80.9383C450.604 -83.5462 452.427 -85.901 454.858 -87.5462C457.288 -89.1914 460.151 -90.0098 462.893 -89.8427C465.635 -89.6756 468.06 -88.5349 469.698 -86.6417C471.336 -84.7486 472.07 -82.2378 471.758 -79.5963C471.446 -76.9548 470.11 -74.3707 468.009 -72.3449L535.949 28.0086L438.691 93.8526L413.427 185.008L498.99 311.393ZM566.544 343.582C569.206 342.384 572.101 342.103 574.67 342.794C577.238 343.486 579.297 345.1 580.446 347.324C581.595 349.547 581.754 352.223 580.89 354.831C580.027 357.438 578.204 359.793 575.774 361.439C573.343 363.084 570.48 363.902 567.738 363.735C564.996 363.568 562.571 362.427 560.933 360.534C559.295 358.641 558.561 356.13 558.873 353.489C559.185 350.847 560.521 348.263 562.622 346.237L450.131 180.078L470.56 106.368L697.103 -47.0022C696.401 -48.8668 696.334 -50.9693 696.91 -53.0479C697.486 -55.1265 698.68 -57.0895 700.343 -58.6926L702.683 -55.2361C701.767 -54.1139 701.204 -52.8005 701.073 -51.4774C700.942 -50.1542 701.249 -48.8865 701.951 -47.8492C702.653 -46.812 703.716 -46.0564 704.993 -45.6867C706.271 -45.317 707.699 -45.3514 709.081 -45.7852L711.421 -42.3288C709.315 -41.3801 707.049 -41.0008 704.905 -41.238C702.762 -41.4752 700.834 -42.3183 699.364 -43.6626L474.43 108.619L454.981 178.792L566.544 343.582ZM211.778 427.915C214.439 426.716 217.334 426.436 219.903 427.127C222.471 427.819 224.53 429.433 225.679 431.657C226.829 433.88 226.987 436.556 226.124 439.164C225.26 441.771 223.437 444.126 221.007 445.771C218.577 447.417 215.713 448.235 212.971 448.068C210.229 447.901 207.804 446.76 206.166 444.867C204.528 442.974 203.794 440.463 204.106 437.822C204.418 435.18 205.754 432.596 207.855 430.57L203.887 424.709L243.765 280.827L179.793 186.335L242.553 143.846L188.292 63.6968L192.214 61.0413L248.736 144.53L185.977 187.019L248.615 279.541L208.737 423.423L211.778 427.915ZM159.006 214.775L208.191 287.427L168.313 431.309L239.068 535.82L290.256 501.166C289.37 498.809 289.503 496.092 290.631 493.541C291.758 490.989 293.798 488.786 296.357 487.357C298.916 485.928 301.81 485.376 304.479 485.807C307.147 486.238 309.4 487.623 310.801 489.692C312.202 491.761 312.65 494.367 312.06 497.005C311.469 499.643 309.881 502.125 307.604 503.97C305.327 505.815 302.523 506.891 299.736 506.99C296.948 507.089 294.376 506.203 292.517 504.505L237.407 541.815L163.464 432.595L203.342 288.713L155.083 217.431C152.422 218.629 149.527 218.909 146.958 218.218C144.39 217.527 142.331 215.913 141.182 213.689C140.032 211.465 139.874 208.79 140.737 206.182C141.601 203.574 143.424 201.219 145.854 199.574C148.284 197.929 151.148 197.11 153.89 197.277C156.632 197.444 159.057 198.585 160.695 200.478C162.333 202.371 163.067 204.882 162.755 207.524C162.443 210.165 161.107 212.749 159.006 214.775ZM145.713 262.736L167.768 295.313L139.521 397.23L136.333 392.521L162.919 296.599L141.791 265.391C139.129 266.589 136.234 266.87 133.665 266.179C131.097 265.487 129.039 263.873 127.889 261.649C126.74 259.426 126.581 256.75 127.445 254.142C128.308 251.534 130.131 249.18 132.562 247.534C134.992 245.889 137.855 245.071 140.597 245.238C143.339 245.405 145.764 246.546 147.402 248.439C149.04 250.332 149.774 252.843 149.462 255.484C149.15 258.126 147.814 260.71 145.713 262.736ZM59.918 228.529C59.0316 226.173 59.1649 223.456 60.2921 220.905C61.4192 218.353 63.4599 216.149 66.0185 214.721C68.5771 213.292 71.4714 212.739 74.1401 213.171C76.8089 213.602 79.062 214.987 80.4627 217.056C81.8634 219.125 82.3119 221.731 81.7212 224.369C81.1306 227.007 79.5428 229.489 77.2657 231.334C74.9887 233.179 72.1846 234.255 69.3972 234.354C66.6097 234.453 64.0374 233.567 62.1789 231.869L56.9032 235.441L49.0854 263.647L45.9089 258.955L53.0341 233.19L59.918 228.529ZM601.563 -94.3354C602.449 -91.9792 602.316 -89.262 601.189 -86.7106C600.062 -84.1593 598.021 -81.9555 595.462 -80.5266C592.904 -79.0977 590.01 -78.5454 587.341 -78.9768C584.672 -79.4082 582.419 -80.7926 581.018 -82.8616C579.617 -84.9306 579.169 -87.5368 579.76 -90.1748C580.35 -92.8129 581.938 -95.295 584.215 -97.1398C586.492 -98.9846 589.296 -100.061 592.084 -100.16C594.871 -100.259 597.444 -99.3731 599.302 -97.6749L635.958 -122.491L642.114 -144.703L645.302 -139.994L639.827 -120.24L601.563 -94.3354ZM751.055 194.073C751.941 196.429 751.808 199.146 750.68 201.698C749.553 204.249 747.513 206.453 744.954 207.882C742.395 209.311 739.501 209.863 736.832 209.432C734.164 209 731.911 207.616 730.51 205.547C729.109 203.478 728.661 200.872 729.251 198.233C729.842 195.595 731.43 193.113 733.707 191.269C735.984 189.424 738.788 188.348 741.575 188.249C744.363 188.15 746.935 189.035 748.794 190.733L799.982 156.079L719.257 36.84L732.549 -11.1207L735.737 -6.41192L724.106 35.5537L806.165 156.763L751.055 194.073ZM379.292 523.681C380.178 526.038 380.045 528.755 378.917 531.306C377.79 533.858 375.75 536.061 373.191 537.49C370.632 538.919 367.738 539.471 365.069 539.04C362.401 538.609 360.148 537.224 358.747 535.155C357.346 533.086 356.898 530.48 357.488 527.842C358.079 525.204 359.667 522.722 361.944 520.877C364.221 519.032 367.025 517.956 369.812 517.857C372.6 517.758 375.172 518.644 377.031 520.342L396.839 506.931L371.302 469.211L298.926 461.205L262.271 486.021C263.157 488.377 263.024 491.094 261.896 493.646C260.769 496.197 258.729 498.401 256.17 499.83C253.611 501.259 250.717 501.811 248.048 501.379C245.38 500.948 243.127 499.564 241.726 497.495C240.325 495.426 239.877 492.819 240.467 490.181C241.058 487.543 242.646 485.061 244.923 483.216C247.2 481.372 250.004 480.295 252.791 480.197C255.579 480.098 258.151 480.983 260.01 482.681L298.273 456.777L374.298 465.186L403.023 507.615L379.292 523.681ZM689.696 347.628C688.809 345.271 688.943 342.554 690.07 340.003C691.197 337.452 693.238 335.248 695.796 333.819C698.355 332.39 701.249 331.838 703.918 332.269C706.586 332.7 708.84 334.085 710.24 336.154C711.641 338.223 712.089 340.829 711.499 343.467C710.908 346.105 709.32 348.587 707.043 350.432C704.766 352.277 701.962 353.353 699.175 353.452C696.387 353.551 693.815 352.665 691.957 350.967L479.947 494.499L415.963 399.99L294.151 386.514L257.476 411.344C258.362 413.7 258.229 416.417 257.102 418.968C255.975 421.52 253.934 423.724 251.376 425.153C248.817 426.581 245.923 427.134 243.254 426.702C240.585 426.271 238.332 424.886 236.931 422.818C235.531 420.749 235.082 418.142 235.673 415.504C236.263 412.866 237.851 410.384 240.128 408.539C242.405 406.694 245.209 405.618 247.997 405.519C250.784 405.421 253.357 406.306 255.215 408.004L293.459 382.113L418.982 395.998L481.608 488.504L689.696 347.628ZM397.379 550.398C398.265 552.754 398.132 555.471 397.005 558.023C395.877 560.574 393.837 562.778 391.278 564.207C388.72 565.636 385.825 566.188 383.157 565.756C380.488 565.325 378.235 563.941 376.834 561.872C375.433 559.803 374.985 557.197 375.575 554.558C376.166 551.92 377.754 549.438 380.031 547.593C382.308 545.749 385.112 544.673 387.9 544.574C390.687 544.475 393.259 545.36 395.118 547.058L446.306 512.404L393.639 434.609L296.529 423.866L244.183 459.304C245.07 461.661 244.936 464.378 243.809 466.929C242.682 469.481 240.641 471.684 238.083 473.113C235.524 474.542 232.63 475.094 229.961 474.663C227.293 474.232 225.039 472.847 223.639 470.778C222.238 468.709 221.789 466.103 222.38 463.465C222.971 460.827 224.559 458.345 226.836 456.5C229.113 454.655 231.917 453.579 234.704 453.48C237.492 453.381 240.064 454.267 241.922 455.965L295.876 419.438L396.634 430.584L452.489 513.088L397.379 550.398ZM111.687 212.475L113.507 215.164L93.0775 288.873L74.6222 301.368L72.3613 298.028L89.2084 286.623L108.657 216.45L62.7723 148.674L66.6948 146.018L111.687 212.475ZM343.182 689.607C345.288 688.658 347.554 688.279 349.698 688.516C351.842 688.753 353.769 689.596 355.24 690.94L351.18 693.689C350.503 693.242 349.717 692.94 348.869 692.801C348.021 692.661 347.126 692.686 346.236 692.875C345.347 693.063 344.479 693.411 343.684 693.899C342.888 694.387 342.18 695.006 341.6 695.719L289.407 618.625L324.709 594.725L378.971 674.874L375.048 677.53L323.048 600.72L295.59 619.309L343.182 689.607ZM339.132 548.434L410.351 653.63L406.428 656.286L336.34 552.76L273.581 595.248L271.32 591.909L338.002 546.765L339.132 548.434ZM53.7018 198.646L20.3608 221.218L18.0999 217.879L49.4797 196.635L31.3925 169.918L35.315 167.263L55.6631 197.319L53.7018 198.646ZM586.859 -167.174L614.316 -185.762L616.577 -182.423L585.197 -161.179L564.849 -191.235L568.771 -193.89L586.859 -167.174ZM832.711 331.164L849.668 356.21L845.745 358.866L829.919 335.489L802.462 354.078L818.288 377.454L814.365 380.11L796.278 353.394L831.581 329.494L832.711 331.164ZM104.127 344.949C105.388 343.743 106.877 342.779 108.488 342.124C110.1 341.469 111.793 341.14 113.447 341.16C115.101 341.181 116.675 341.55 118.055 342.243C119.436 342.935 120.59 343.933 121.434 345.164C122.272 346.402 122.777 347.844 122.911 349.384C123.045 350.925 122.805 352.526 122.209 354.072C121.613 355.618 120.675 357.069 119.464 358.322C118.252 359.574 116.798 360.596 115.205 361.313L112.865 357.856C113.932 357.521 114.936 356.96 115.792 356.218C116.649 355.476 117.333 354.577 117.787 353.594C118.241 352.612 118.452 351.575 118.403 350.572C118.353 349.568 118.044 348.626 117.502 347.826C116.96 347.025 116.201 346.388 115.287 345.97C114.373 345.551 113.333 345.362 112.252 345.419C111.171 345.476 110.082 345.776 109.075 346.296C108.069 346.816 107.174 347.539 106.467 348.405L104.127 344.949ZM464.393 539.12L468.316 536.464L504.49 589.897L500.568 592.553L464.393 539.12ZM574.898 542.23L570.839 544.979C569.772 544.274 568.447 543.935 567.047 544.009C565.647 544.082 564.241 544.565 563.022 545.39C561.804 546.214 560.834 547.341 560.246 548.613C559.657 549.886 559.48 551.242 559.738 552.494L555.678 555.243C554.851 553.05 554.905 550.539 555.831 548.135C556.757 545.73 558.499 543.58 560.761 542.049C563.023 540.518 565.666 539.699 568.243 539.732C570.819 539.765 573.171 540.648 574.898 542.23ZM11.5841 183.329C12.8133 184.467 13.6771 185.918 14.0992 187.555C14.5212 189.191 14.4885 190.962 14.0039 192.71C13.5193 194.459 12.5977 196.131 11.3207 197.579C10.0437 199.028 8.45066 200.208 6.68239 201.014L4.34237 197.558C5.60419 197.165 6.77435 196.456 7.71731 195.513C8.66027 194.57 9.33745 193.432 9.67042 192.231C10.0034 191.03 9.97852 189.814 9.5987 188.725C9.21888 187.636 8.49964 186.718 7.52429 186.077L11.5841 183.329ZM588.58 -207.301L592.64 -210.049C592.802 -209.254 593.135 -208.52 593.621 -207.891C594.107 -207.261 594.736 -206.747 595.471 -206.379C596.207 -206.011 597.034 -205.795 597.907 -205.744C598.78 -205.694 599.681 -205.809 600.558 -206.084L602.898 -202.627C601.488 -201.992 599.999 -201.609 598.516 -201.5C597.033 -201.391 595.585 -201.558 594.255 -201.992C592.926 -202.426 591.74 -203.118 590.766 -204.029C589.793 -204.94 589.05 -206.052 588.58 -207.301V-207.301ZM935.476 288.621L937.816 292.077C937.156 292.887 936.677 293.8 936.414 294.749C936.151 295.698 936.111 296.66 936.296 297.563L932.236 300.311C931.534 298.446 931.467 296.344 932.043 294.265C932.619 292.187 933.813 290.224 935.476 288.621ZM303.297 229.347C304.07 228.823 304.747 228.176 305.291 227.441C305.834 226.706 306.233 225.898 306.465 225.063C306.696 224.228 306.755 223.382 306.64 222.574C306.524 221.766 306.235 221.012 305.79 220.354C305.344 219.696 304.751 219.148 304.044 218.74C303.337 218.333 302.53 218.074 301.668 217.979C300.807 217.883 299.909 217.953 299.024 218.185C298.14 218.416 297.287 218.805 296.515 219.328C294.954 220.384 293.815 221.925 293.348 223.612C292.88 225.298 293.123 226.992 294.022 228.321C294.922 229.649 296.404 230.504 298.144 230.696C299.883 230.888 301.737 230.403 303.297 229.347ZM285.21 202.63C286.771 201.574 287.91 200.033 288.377 198.346C288.845 196.66 288.602 194.966 287.703 193.638C286.803 192.309 285.321 191.455 283.581 191.262C281.842 191.07 279.988 191.555 278.428 192.612C276.867 193.668 275.728 195.209 275.26 196.895C274.793 198.582 275.036 200.276 275.935 201.604C276.835 202.933 278.317 203.787 280.057 203.98C281.796 204.172 283.65 203.687 285.21 202.63ZM334.677 208.102C335.45 207.579 336.127 206.932 336.671 206.197C337.214 205.462 337.613 204.654 337.844 203.818C338.076 202.983 338.135 202.138 338.02 201.33C337.904 200.522 337.615 199.768 337.17 199.11C336.724 198.452 336.131 197.903 335.424 197.496C334.717 197.088 333.91 196.83 333.048 196.734C332.187 196.639 331.289 196.709 330.404 196.941C329.52 197.172 328.667 197.561 327.895 198.084C326.334 199.14 325.195 200.681 324.727 202.367C324.26 204.054 324.503 205.748 325.402 207.076C326.302 208.405 327.784 209.259 329.524 209.452C331.263 209.644 333.117 209.159 334.677 208.102ZM384.144 213.574C385.705 212.518 386.844 210.977 387.311 209.291C387.779 207.604 387.536 205.91 386.637 204.582C385.737 203.253 384.255 202.399 382.515 202.206C380.776 202.014 378.922 202.499 377.361 203.556C375.801 204.612 374.662 206.153 374.194 207.84C373.727 209.526 373.97 211.22 374.869 212.548C375.769 213.877 377.251 214.731 378.99 214.924C380.73 215.116 382.584 214.631 384.144 213.574ZM402.231 240.291C403.792 239.234 404.931 237.693 405.398 236.007C405.866 234.321 405.623 232.627 404.724 231.298C403.824 229.97 402.342 229.115 400.602 228.923C398.863 228.73 397.009 229.216 395.449 230.272C393.888 231.329 392.749 232.87 392.282 234.556C391.814 236.242 392.057 237.936 392.956 239.265C393.856 240.593 395.338 241.448 397.078 241.64C398.817 241.833 400.671 241.347 402.231 240.291ZM344.266 357.456C345.827 356.4 346.966 354.859 347.433 353.173C347.901 351.486 347.658 349.792 346.759 348.464C345.859 347.135 344.377 346.281 342.637 346.088C340.898 345.896 339.044 346.381 337.484 347.438C335.923 348.494 334.784 350.035 334.316 351.722C333.849 353.408 334.092 355.102 334.991 356.43C335.891 357.759 337.373 358.614 339.112 358.806C340.852 358.998 342.706 358.513 344.266 357.456ZM393.733 362.929C395.294 361.872 396.433 360.331 396.9 358.645C397.368 356.958 397.125 355.265 396.226 353.936C395.326 352.607 393.844 351.753 392.104 351.561C390.365 351.368 388.511 351.854 386.95 352.91C385.39 353.966 384.251 355.507 383.783 357.194C383.316 358.88 383.559 360.574 384.458 361.903C385.358 363.231 386.84 364.086 388.579 364.278C390.319 364.47 392.173 363.985 393.733 362.929ZM510.754 400.589C512.315 399.533 513.454 397.992 513.921 396.305C514.389 394.619 514.146 392.925 513.247 391.597C512.347 390.268 510.865 389.414 509.125 389.221C507.386 389.029 505.532 389.514 503.972 390.571C502.411 391.627 501.272 393.168 500.804 394.854C500.337 396.541 500.58 398.235 501.479 399.563C502.379 400.892 503.861 401.746 505.6 401.939C507.34 402.131 509.194 401.646 510.754 400.589ZM497.462 448.55C499.022 447.494 500.161 445.953 500.629 444.266C501.096 442.58 500.853 440.886 499.954 439.557C499.054 438.229 497.572 437.374 495.833 437.182C494.093 436.989 492.239 437.475 490.679 438.531C489.118 439.588 487.979 441.129 487.512 442.815C487.044 444.502 487.287 446.195 488.186 447.524C489.086 448.852 490.568 449.707 492.308 449.899C494.047 450.092 495.901 449.606 497.462 448.55ZM542.134 379.345C543.694 378.289 544.834 376.748 545.301 375.061C545.769 373.375 545.526 371.681 544.626 370.352C543.727 369.024 542.244 368.169 540.505 367.977C538.766 367.784 536.912 368.27 535.351 369.326C533.791 370.383 532.652 371.924 532.184 373.61C531.717 375.297 531.959 376.99 532.859 378.319C533.758 379.648 535.241 380.502 536.98 380.694C538.72 380.887 540.574 380.401 542.134 379.345ZM505.96 325.912C507.52 324.856 508.659 323.315 509.127 321.628C509.594 319.942 509.351 318.248 508.452 316.92C507.553 315.591 506.07 314.737 504.331 314.544C502.591 314.352 500.737 314.837 499.177 315.894C497.617 316.95 496.477 318.491 496.01 320.177C495.542 321.864 495.785 323.558 496.685 324.886C497.584 326.215 499.067 327.069 500.806 327.262C502.545 327.454 504.399 326.969 505.96 325.912ZM573.514 358.101C575.074 357.044 576.213 355.503 576.681 353.817C577.148 352.13 576.906 350.437 576.006 349.108C575.107 347.78 573.624 346.925 571.885 346.733C570.145 346.54 568.292 347.026 566.731 348.082C565.171 349.138 564.031 350.679 563.564 352.366C563.097 354.052 563.339 355.746 564.239 357.075C565.138 358.403 566.621 359.258 568.36 359.45C570.099 359.643 571.953 359.157 573.514 358.101ZM654.361 342.329C655.921 341.272 657.06 339.731 657.528 338.045C657.995 336.358 657.752 334.664 656.853 333.336C655.953 332.007 654.471 331.153 652.732 330.96C650.992 330.768 649.138 331.253 647.578 332.31C646.017 333.366 644.878 334.907 644.411 336.594C643.943 338.28 644.186 339.974 645.085 341.303C645.985 342.631 647.467 343.486 649.207 343.678C650.946 343.87 652.8 343.385 654.361 342.329ZM636.273 315.612C637.834 314.556 638.973 313.015 639.44 311.328C639.908 309.642 639.665 307.948 638.766 306.619C637.866 305.291 636.384 304.436 634.644 304.244C632.905 304.052 631.051 304.537 629.491 305.593C627.93 306.65 626.791 308.191 626.324 309.877C625.856 311.564 626.099 313.258 626.998 314.586C627.898 315.915 629.38 316.769 631.12 316.962C632.859 317.154 634.713 316.669 636.273 315.612ZM532.545 229.991C534.105 228.934 535.245 227.393 535.712 225.707C536.179 224.021 535.937 222.327 535.037 220.998C534.138 219.67 532.655 218.815 530.916 218.623C529.177 218.43 527.323 218.916 525.762 219.972C524.202 221.029 523.063 222.57 522.595 224.256C522.128 225.942 522.37 227.636 523.27 228.965C524.169 230.293 525.652 231.148 527.391 231.34C529.131 231.533 530.985 231.047 532.545 229.991ZM563.925 208.747C565.485 207.69 566.624 206.149 567.092 204.463C567.559 202.776 567.317 201.082 566.417 199.754C565.518 198.425 564.035 197.571 562.296 197.378C560.556 197.186 558.703 197.671 557.142 198.728C555.582 199.784 554.442 201.325 553.975 203.012C553.508 204.698 553.75 206.392 554.65 207.72C555.549 209.049 557.032 209.904 558.771 210.096C560.51 210.288 562.364 209.803 563.925 208.747ZM703.827 347.801C705.388 346.744 706.527 345.203 706.995 343.517C707.462 341.83 707.219 340.137 706.32 338.808C705.42 337.479 703.938 336.625 702.198 336.433C700.459 336.24 698.605 336.726 697.045 337.782C695.484 338.838 694.345 340.379 693.878 342.066C693.41 343.752 693.653 345.446 694.552 346.775C695.452 348.103 696.934 348.958 698.674 349.15C700.413 349.342 702.267 348.857 703.827 347.801ZM721.915 374.517C723.475 373.461 724.614 371.92 725.082 370.233C725.549 368.547 725.306 366.853 724.407 365.524C723.508 364.196 722.025 363.341 720.286 363.149C718.546 362.957 716.692 363.442 715.132 364.498C713.571 365.555 712.432 367.096 711.965 368.782C711.497 370.469 711.74 372.162 712.64 373.491C713.539 374.82 715.021 375.674 716.761 375.866C718.5 376.059 720.354 375.573 721.915 374.517ZM771.382 379.989C772.942 378.933 774.081 377.392 774.549 375.705C775.016 374.019 774.773 372.325 773.874 370.997C772.974 369.668 771.492 368.814 769.753 368.621C768.013 368.429 766.159 368.914 764.599 369.971C763.038 371.027 761.899 372.568 761.432 374.254C760.964 375.941 761.207 377.635 762.107 378.963C763.006 380.292 764.488 381.146 766.228 381.339C767.967 381.531 769.821 381.046 771.382 379.989ZM639.977 118.297C641.537 117.241 642.677 115.7 643.144 114.013C643.612 112.327 643.369 110.633 642.469 109.305C641.57 107.976 640.087 107.122 638.348 106.929C636.609 106.737 634.755 107.222 633.194 108.279C631.634 109.335 630.495 110.876 630.027 112.562C629.56 114.249 629.803 115.943 630.702 117.271C631.601 118.6 633.084 119.454 634.823 119.647C636.563 119.839 638.417 119.354 639.977 118.297ZM676.151 171.73C677.712 170.674 678.851 169.133 679.318 167.446C679.786 165.76 679.543 164.066 678.644 162.737C677.744 161.409 676.262 160.554 674.522 160.362C672.783 160.17 670.929 160.655 669.369 161.711C667.808 162.768 666.669 164.309 666.202 165.995C665.734 167.682 665.977 169.375 666.876 170.704C667.776 172.033 669.258 172.887 670.998 173.079C672.737 173.272 674.591 172.786 676.151 171.73ZM671.357 97.053C672.917 95.9965 674.056 94.4556 674.524 92.7691C674.991 91.0827 674.749 89.3889 673.849 88.0603C672.95 86.7318 671.467 85.8773 669.728 85.6849C667.988 85.4925 666.135 85.9778 664.574 87.0343C663.014 88.0907 661.874 89.6316 661.407 91.3181C660.94 93.0046 661.182 94.6984 662.082 96.0269C662.981 97.3555 664.464 98.21 666.203 98.4024C667.943 98.5948 669.796 98.1094 671.357 97.053ZM684.649 49.0922C686.21 48.0358 687.349 46.4949 687.817 44.8085C688.284 43.122 688.041 41.4282 687.142 40.0996C686.242 38.7711 684.76 37.9166 683.02 37.7242C681.281 37.5318 679.427 38.0172 677.867 39.0736C676.306 40.13 675.167 41.6709 674.7 43.3574C674.232 45.0439 674.475 46.7377 675.374 48.0662C676.274 49.3948 677.756 50.2493 679.496 50.4417C681.235 50.6341 683.089 50.1487 684.649 49.0922ZM496.371 176.558C497.931 175.502 499.07 173.961 499.538 172.274C500.005 170.588 499.762 168.894 498.863 167.565C497.964 166.237 496.481 165.382 494.742 165.19C493.002 164.997 491.148 165.483 489.588 166.539C488.028 167.596 486.888 169.137 486.421 170.823C485.953 172.51 486.196 174.203 487.096 175.532C487.995 176.86 489.478 177.715 491.217 177.907C492.956 178.1 494.81 177.614 496.371 176.558ZM514.458 203.274C516.018 202.218 517.158 200.677 517.625 198.991C518.092 197.304 517.85 195.61 516.95 194.282C516.051 192.953 514.568 192.099 512.829 191.906C511.089 191.714 509.236 192.199 507.675 193.256C506.115 194.312 504.975 195.853 504.508 197.54C504.041 199.226 504.283 200.92 505.183 202.248C506.082 203.577 507.565 204.431 509.304 204.624C511.044 204.816 512.897 204.331 514.458 203.274ZM509.663 128.597C511.224 127.541 512.363 126 512.83 124.313C513.298 122.627 513.055 120.933 512.156 119.605C511.256 118.276 509.774 117.422 508.034 117.229C506.295 117.037 504.441 117.522 502.881 118.579C501.32 119.635 500.181 121.176 499.714 122.862C499.246 124.549 499.489 126.243 500.388 127.571C501.288 128.9 502.77 129.754 504.51 129.947C506.249 130.139 508.103 129.654 509.663 128.597ZM697.942 1.13156C699.503 0.0751042 700.642 -1.46579 701.109 -3.15225C701.577 -4.83868 701.334 -6.53252 700.434 -7.86108C699.535 -9.18963 698.052 -10.0441 696.313 -10.2365C694.574 -10.4289 692.72 -9.94354 691.159 -8.88709C689.599 -7.83064 688.46 -6.28974 687.992 -4.60328C687.525 -2.91685 687.768 -1.223 688.667 0.105556C689.566 1.43411 691.049 2.28854 692.788 2.48098C694.528 2.67339 696.382 2.18801 697.942 1.13156ZM594.214 -84.4898C595.774 -85.5462 596.913 -87.0871 597.381 -88.7736C597.848 -90.46 597.605 -92.1538 596.706 -93.4824C595.807 -94.811 594.324 -95.6654 592.585 -95.8578C590.845 -96.0503 588.991 -95.5649 587.431 -94.5084C585.871 -93.452 584.731 -91.9111 584.264 -90.2246C583.797 -88.5382 584.039 -86.8444 584.939 -85.5158C585.838 -84.1872 587.321 -83.3328 589.06 -83.1404C590.799 -82.948 592.653 -83.4333 594.214 -84.4898ZM607.506 -132.45C609.067 -133.507 610.206 -135.048 610.673 -136.734C611.141 -138.421 610.898 -140.115 609.999 -141.443C609.099 -142.772 607.617 -143.626 605.877 -143.819C604.138 -144.011 602.284 -143.526 600.724 -142.469C599.163 -141.413 598.024 -139.872 597.557 -138.185C597.089 -136.499 597.332 -134.805 598.231 -133.476C599.131 -132.148 600.613 -131.293 602.353 -131.101C604.092 -130.909 605.946 -131.394 607.506 -132.45ZM544.747 -89.9619C546.307 -91.0183 547.446 -92.5592 547.914 -94.2457C548.381 -95.9321 548.139 -97.626 547.239 -98.9545C546.34 -100.283 544.857 -101.138 543.118 -101.33C541.378 -101.522 539.525 -101.037 537.964 -99.9805C536.404 -98.9241 535.264 -97.3832 534.797 -95.6967C534.33 -94.0103 534.572 -92.3165 535.472 -90.9879C536.371 -89.6594 537.854 -88.8049 539.593 -88.6125C541.332 -88.4201 543.186 -88.9055 544.747 -89.9619ZM526.66 -116.678C528.22 -117.735 529.359 -119.276 529.827 -120.962C530.294 -122.649 530.051 -124.342 529.152 -125.671C528.253 -126.999 526.77 -127.854 525.031 -128.046C523.291 -128.239 521.437 -127.753 519.877 -126.697C518.316 -125.641 517.177 -124.1 516.71 -122.413C516.242 -120.727 516.485 -119.033 517.385 -117.704C518.284 -116.376 519.766 -115.521 521.506 -115.329C523.245 -115.136 525.099 -115.622 526.66 -116.678ZM495.28 -95.434C496.84 -96.4904 497.98 -98.0314 498.447 -99.7178C498.914 -101.404 498.672 -103.098 497.772 -104.427C496.873 -105.755 495.39 -106.61 493.651 -106.802C491.911 -106.994 490.058 -106.509 488.497 -105.453C486.937 -104.396 485.797 -102.855 485.33 -101.169C484.863 -99.4824 485.105 -97.7886 486.005 -96.46C486.904 -95.1315 488.387 -94.277 490.126 -94.0846C491.866 -93.8922 493.719 -94.3776 495.28 -95.434ZM463.9 -74.1897C465.46 -75.2462 466.6 -76.7871 467.067 -78.4736C467.535 -80.16 467.292 -81.8538 466.392 -83.1824C465.493 -84.5109 464.01 -85.3654 462.271 -85.5578C460.532 -85.7502 458.678 -85.2648 457.117 -84.2084C455.557 -83.1519 454.418 -81.611 453.95 -79.9246C453.483 -78.2381 453.726 -76.5443 454.625 -75.2158C455.524 -73.8872 457.007 -73.0327 458.746 -72.8403C460.486 -72.6479 462.34 -73.1333 463.9 -74.1897ZM432.52 -52.9454C434.081 -54.0019 435.22 -55.5428 435.687 -57.2293C436.155 -58.9157 435.912 -60.6095 435.013 -61.9381C434.113 -63.2666 432.631 -64.1211 430.891 -64.3135C429.152 -64.5059 427.298 -64.0205 425.738 -62.9641C424.177 -61.9077 423.038 -60.3667 422.57 -58.6803C422.103 -56.9938 422.346 -55.3 423.245 -53.9715C424.145 -52.6429 425.627 -51.7884 427.367 -51.596C429.106 -51.4036 430.96 -51.889 432.52 -52.9454ZM136.809 186.214C138.37 185.157 139.509 183.616 139.977 181.93C140.444 180.244 140.201 178.55 139.302 177.221C138.402 175.893 136.92 175.038 135.18 174.846C133.441 174.653 131.587 175.139 130.027 176.195C128.466 177.252 127.327 178.793 126.86 180.479C126.392 182.165 126.635 183.859 127.534 185.188C128.434 186.516 129.916 187.371 131.656 187.563C133.395 187.756 135.249 187.27 136.809 186.214ZM74.0499 228.702C75.6103 227.646 76.7496 226.105 77.217 224.419C77.6844 222.732 77.4417 221.038 76.5422 219.71C75.6428 218.381 74.1603 217.527 72.4209 217.334C70.6815 217.142 68.8276 217.627 67.2672 218.684C65.7067 219.74 64.5675 221.281 64.1001 222.968C63.6327 224.654 63.8754 226.348 64.7748 227.676C65.6743 229.005 67.1567 229.859 68.8962 230.052C70.6356 230.244 72.4894 229.759 74.0499 228.702ZM154.897 212.93C156.457 211.874 157.596 210.333 158.064 208.646C158.531 206.96 158.288 205.266 157.389 203.938C156.49 202.609 155.007 201.755 153.268 201.562C151.528 201.37 149.674 201.855 148.114 202.912C146.553 203.968 145.414 205.509 144.947 207.195C144.479 208.882 144.722 210.576 145.622 211.904C146.521 213.233 148.003 214.087 149.743 214.28C151.482 214.472 153.336 213.987 154.897 212.93ZM141.604 260.891C143.164 259.834 144.304 258.294 144.771 256.607C145.238 254.921 144.996 253.227 144.096 251.898C143.197 250.57 141.714 249.715 139.975 249.523C138.236 249.33 136.382 249.816 134.821 250.872C133.261 251.929 132.122 253.47 131.654 255.156C131.187 256.843 131.429 258.536 132.329 259.865C133.228 261.193 134.711 262.048 136.45 262.24C138.19 262.433 140.044 261.947 141.604 260.891ZM118.722 159.497C120.283 158.441 121.422 156.9 121.889 155.214C122.357 153.527 122.114 151.833 121.215 150.505C120.315 149.176 118.833 148.322 117.093 148.129C115.354 147.937 113.5 148.422 111.94 149.479C110.379 150.535 109.24 152.076 108.773 153.763C108.305 155.449 108.548 157.143 109.447 158.471C110.347 159.8 111.829 160.654 113.569 160.847C115.308 161.039 117.162 160.554 118.722 159.497ZM390.03 560.244C391.59 559.187 392.729 557.646 393.197 555.96C393.664 554.273 393.421 552.579 392.522 551.251C391.622 549.922 390.14 549.068 388.401 548.875C386.661 548.683 384.807 549.168 383.247 550.225C381.686 551.281 380.547 552.822 380.08 554.509C379.612 556.195 379.855 557.889 380.754 559.217C381.654 560.546 383.136 561.4 384.876 561.593C386.615 561.785 388.469 561.3 390.03 560.244ZM457.584 592.432C459.144 591.376 460.283 589.835 460.751 588.148C461.218 586.462 460.975 584.768 460.076 583.439C459.177 582.111 457.694 581.256 455.955 581.064C454.215 580.872 452.361 581.357 450.801 582.413C449.24 583.47 448.101 585.011 447.634 586.697C447.166 588.384 447.409 590.077 448.309 591.406C449.208 592.735 450.69 593.589 452.43 593.781C454.169 593.974 456.023 593.488 457.584 592.432ZM353.855 506.811C355.416 505.754 356.555 504.213 357.022 502.527C357.49 500.84 357.247 499.147 356.348 497.818C355.448 496.49 353.966 495.635 352.226 495.443C350.487 495.25 348.633 495.736 347.073 496.792C345.512 497.848 344.373 499.389 343.905 501.076C343.438 502.762 343.681 504.456 344.58 505.785C345.48 507.113 346.962 507.968 348.702 508.16C350.441 508.353 352.295 507.867 353.855 506.811ZM371.942 533.527C373.503 532.471 374.642 530.93 375.109 529.243C375.577 527.557 375.334 525.863 374.435 524.534C373.535 523.206 372.053 522.351 370.313 522.159C368.574 521.967 366.72 522.452 365.16 523.508C363.599 524.565 362.46 526.106 361.993 527.792C361.525 529.479 361.768 531.173 362.667 532.501C363.567 533.83 365.049 534.684 366.789 534.877C368.528 535.069 370.382 534.584 371.942 533.527ZM304.388 501.339C305.949 500.282 307.088 498.741 307.555 497.055C308.023 495.368 307.78 493.674 306.881 492.346C305.981 491.017 304.499 490.163 302.759 489.97C301.02 489.778 299.166 490.263 297.606 491.32C296.045 492.376 294.906 493.917 294.438 495.604C293.971 497.29 294.214 498.984 295.113 500.313C296.013 501.641 297.495 502.496 299.235 502.688C300.974 502.88 302.828 502.395 304.388 501.339ZM262.329 101.237C263.889 100.18 265.028 98.6393 265.496 96.9529C265.963 95.2664 265.72 93.5726 264.821 92.2441C263.922 90.9155 262.439 90.061 260.7 89.8686C258.96 89.6762 257.106 90.1616 255.546 91.218C253.985 92.2745 252.846 93.8154 252.379 95.5019C251.911 97.1883 252.154 98.8821 253.054 100.211C253.953 101.539 255.435 102.394 257.175 102.586C258.914 102.779 260.768 102.293 262.329 101.237ZM293.708 79.9924C295.269 78.9359 296.408 77.395 296.876 75.7086C297.343 74.0221 297.1 72.3283 296.201 70.9998C295.301 69.6712 293.819 68.8167 292.079 68.6243C290.34 68.4319 288.486 68.9173 286.926 69.9737C285.365 71.0302 284.226 72.5711 283.759 74.2576C283.291 75.944 283.534 77.6378 284.433 78.9664C285.333 80.2949 286.815 81.1494 288.555 81.3418C290.294 81.5342 292.148 81.0488 293.708 79.9924ZM244.241 74.5203C245.802 73.4638 246.941 71.9229 247.409 70.2365C247.876 68.55 247.633 66.8562 246.734 65.5276C245.834 64.1991 244.352 63.3446 242.613 63.1522C240.873 62.9598 239.019 63.4452 237.459 64.5016C235.898 65.5581 234.759 67.099 234.292 68.7854C233.824 70.4719 234.067 72.1657 234.966 73.4943C235.866 74.8228 237.348 75.6773 239.088 75.8697C240.827 76.0621 242.681 75.5767 244.241 74.5203ZM361.263 112.181C362.823 111.124 363.962 109.584 364.43 107.897C364.897 106.211 364.654 104.517 363.755 103.188C362.855 101.86 361.373 101.005 359.634 100.813C357.894 100.62 356.04 101.106 354.48 102.162C352.919 103.219 351.78 104.76 351.313 106.446C350.845 108.133 351.088 109.826 351.987 111.155C352.887 112.483 354.369 113.338 356.109 113.53C357.848 113.723 359.702 113.237 361.263 112.181ZM374.555 64.2202C376.116 63.1638 377.255 61.6229 377.722 59.9364C378.19 58.25 377.947 56.5562 377.048 55.2276C376.148 53.899 374.666 53.0446 372.926 52.8522C371.187 52.6597 369.333 53.1451 367.772 54.2016C366.212 55.258 365.073 56.7989 364.605 58.4854C364.138 60.1719 364.381 61.8656 365.28 63.1942C366.18 64.5228 367.662 65.3772 369.401 65.5697C371.141 65.7621 372.995 65.2767 374.555 64.2202ZM338.381 10.7874C339.941 9.73098 341.081 8.19005 341.548 6.5036C342.015 4.81714 341.773 3.12335 340.873 1.79479C339.974 0.466235 338.491 -0.388252 336.752 -0.580655C335.012 -0.773075 333.159 -0.287673 331.598 0.768763C330.038 1.8252 328.898 3.36613 328.431 5.05259C327.964 6.73903 328.206 8.43283 329.106 9.76139C330.005 11.0899 331.488 11.9444 333.227 12.1369C334.967 12.3293 336.82 11.8439 338.381 10.7874ZM756.998 155.958C758.558 154.901 759.698 153.361 760.165 151.674C760.633 149.988 760.39 148.294 759.49 146.965C758.591 145.637 757.108 144.782 755.369 144.59C753.63 144.397 751.776 144.883 750.215 145.939C748.655 146.996 747.516 148.537 747.048 150.223C746.581 151.909 746.824 153.603 747.723 154.932C748.622 156.26 750.105 157.115 751.844 157.307C753.584 157.5 755.438 157.014 756.998 155.958ZM743.705 203.919C745.266 202.862 746.405 201.321 746.872 199.635C747.34 197.948 747.097 196.254 746.198 194.926C745.298 193.597 743.816 192.743 742.076 192.55C740.337 192.358 738.483 192.843 736.923 193.9C735.362 194.956 734.223 196.497 733.756 198.184C733.288 199.87 733.531 201.564 734.43 202.893C735.33 204.221 736.812 205.076 738.552 205.268C740.291 205.46 742.145 204.975 743.705 203.919ZM761.793 230.635C763.353 229.579 764.492 228.038 764.96 226.351C765.427 224.665 765.184 222.971 764.285 221.642C763.385 220.314 761.903 219.459 760.164 219.267C758.424 219.075 756.57 219.56 755.01 220.616C753.449 221.673 752.31 223.214 751.843 224.9C751.375 226.587 751.618 228.28 752.518 229.609C753.417 230.937 754.899 231.792 756.639 231.984C758.378 232.177 760.232 231.691 761.793 230.635ZM779.88 257.351C781.44 256.295 782.579 254.754 783.047 253.068C783.514 251.381 783.271 249.687 782.372 248.359C781.473 247.03 779.99 246.176 778.251 245.983C776.511 245.791 774.657 246.276 773.097 247.333C771.537 248.389 770.397 249.93 769.93 251.617C769.462 253.303 769.705 254.997 770.605 256.325C771.504 257.654 772.987 258.508 774.726 258.701C776.465 258.893 778.319 258.408 779.88 257.351ZM236.834 469.15C238.395 468.094 239.534 466.553 240.001 464.866C240.469 463.18 240.226 461.486 239.327 460.157C238.427 458.829 236.945 457.974 235.205 457.782C233.466 457.59 231.612 458.075 230.052 459.131C228.491 460.188 227.352 461.729 226.884 463.415C226.417 465.102 226.66 466.795 227.559 468.124C228.459 469.453 229.941 470.307 231.681 470.499C233.42 470.692 235.274 470.206 236.834 469.15ZM254.921 495.866C256.482 494.81 257.621 493.269 258.088 491.583C258.556 489.896 258.313 488.202 257.414 486.874C256.514 485.545 255.032 484.691 253.292 484.498C251.553 484.306 249.699 484.791 248.139 485.848C246.578 486.904 245.439 488.445 244.972 490.132C244.504 491.818 244.747 493.512 245.646 494.84C246.546 496.169 248.028 497.023 249.768 497.216C251.507 497.408 253.361 496.923 254.921 495.866ZM218.747 442.434C220.308 441.377 221.447 439.836 221.914 438.15C222.382 436.463 222.139 434.77 221.239 433.441C220.34 432.112 218.857 431.258 217.118 431.066C215.379 430.873 213.525 431.359 211.964 432.415C210.404 433.471 209.265 435.012 208.797 436.699C208.33 438.385 208.573 440.079 209.472 441.408C210.371 442.736 211.854 443.591 213.593 443.783C215.333 443.975 217.187 443.49 218.747 442.434ZM250.127 421.189C251.687 420.133 252.827 418.592 253.294 416.906C253.761 415.219 253.519 413.525 252.619 412.197C251.72 410.868 250.237 410.014 248.498 409.821C246.758 409.629 244.905 410.114 243.344 411.171C241.784 412.227 240.644 413.768 240.177 415.455C239.71 417.141 239.952 418.835 240.852 420.163C241.751 421.492 243.234 422.346 244.973 422.539C246.713 422.731 248.566 422.246 250.127 421.189ZM128.311 308.852C129.872 307.795 131.011 306.254 131.478 304.568C131.946 302.881 131.703 301.188 130.804 299.859C129.904 298.53 128.422 297.676 126.682 297.484C124.943 297.291 123.089 297.777 121.529 298.833C119.968 299.889 118.829 301.43 118.362 303.117C117.894 304.803 118.137 306.497 119.036 307.826C119.936 309.154 121.418 310.009 123.158 310.201C124.897 310.393 126.751 309.908 128.311 308.852ZM263.419 373.229C264.98 372.172 266.119 370.631 266.587 368.945C267.054 367.258 266.811 365.565 265.912 364.236C265.012 362.907 263.53 362.053 261.791 361.861C260.051 361.668 258.197 362.154 256.637 363.21C255.076 364.266 253.937 365.807 253.47 367.494C253.002 369.18 253.245 370.874 254.144 372.203C255.044 373.531 256.526 374.386 258.266 374.578C260.005 374.771 261.859 374.285 263.419 373.229ZM276.712 325.268C278.273 324.212 279.412 322.671 279.879 320.984C280.347 319.298 280.104 317.604 279.205 316.275C278.305 314.947 276.823 314.092 275.083 313.9C273.344 313.707 271.49 314.193 269.929 315.249C268.369 316.306 267.23 317.847 266.762 319.533C266.295 321.22 266.538 322.913 267.437 324.242C268.337 325.57 269.819 326.425 271.558 326.617C273.298 326.81 275.152 326.324 276.712 325.268Z" fill="#F4F3F1" fill-opacity="0.62"/>
</svg>
